<?xml version="1.0" standalone="no"?>
<!DOCTYPE svg PUBLIC "-//W3C//DTD SVG 20010904//EN"
 "http://www.w3.org/TR/2001/REC-SVG-20010904/DTD/svg10.dtd">
<svg version="1.0" xmlns="http://www.w3.org/2000/svg"
 width="1080.000000pt" height="1080.000000pt" viewBox="0 0 1080.000000 1080.000000"
 preserveAspectRatio="xMidYMid meet">
<metadata>
Created by potrace 1.11, written by Peter Selinger 2001-2013
</metadata>
<g transform="translate(0.000000,1080.000000) scale(0.100000,-0.100000)"
fill="#000000" stroke="none">
<path d="M0 10755 c0 -43 1 -44 20 -33 22 14 26 48 8 66 -21 21 -28 13 -28
-33z"/>
<path d="M1596 10765 c-4 -19 -12 -35 -19 -35 -9 0 -12 -42 -13 -158 -1 -129
-5 -166 -21 -207 -13 -33 -24 -49 -34 -47 -13 2 -16 -12 -16 -80 0 -106 -11
-168 -33 -193 -15 -17 -16 -24 -5 -49 10 -23 13 -25 18 -11 4 9 7 29 7 44 0
14 7 36 15 48 9 12 15 37 15 55 -2 78 38 197 82 244 26 27 27 32 12 38 -13 5
-15 14 -10 44 3 20 7 87 9 147 3 109 14 150 43 168 23 13 16 27 -15 27 -25 0
-30 -5 -35 -35z"/>
<path d="M4955 10780 c-22 -10 -49 -19 -59 -19 -11 -1 -16 -4 -13 -8 6 -6 -54
-53 -68 -53 -4 0 -36 -25 -71 -55 -36 -30 -68 -55 -72 -55 -12 -1 -189 -174
-195 -192 -4 -10 -10 -18 -15 -18 -9 0 -72 -92 -72 -104 0 -4 -11 -23 -24 -44
-21 -32 -43 -120 -37 -146 1 -4 -3 -14 -10 -22 -6 -7 -8 -18 -4 -24 3 -5 3
-10 -2 -10 -11 0 -34 -65 -40 -115 -3 -22 -12 -49 -19 -60 -18 -25 -18 -99 0
-114 7 -6 14 -22 14 -35 0 -13 7 -39 16 -56 11 -22 16 -60 16 -114 0 -73 20
-165 54 -247 5 -12 0 -18 -18 -23 -14 -3 -26 -13 -26 -22 0 -11 -6 -13 -20 -9
-44 14 -92 -48 -109 -142 -19 -97 63 -395 109 -399 8 -1 23 -2 33 -3 12 -1 17
-10 17 -34 0 -36 24 -77 45 -77 9 0 12 -6 8 -16 -4 -11 -9 -12 -16 -5 -15 15
-37 14 -37 -1 0 -22 68 -86 98 -93 16 -3 41 -1 57 5 15 6 29 9 30 8 1 -2 20
-78 42 -170 29 -118 54 -196 88 -268 42 -90 49 -113 55 -194 5 -69 3 -93 -6
-99 -7 -4 -16 -23 -20 -42 -3 -19 -10 -35 -15 -35 -4 0 -6 -15 -5 -34 4 -36
-16 -76 -37 -76 -7 0 -6 4 3 10 12 7 10 9 -7 7 -17 -1 -20 -4 -11 -15 9 -10 8
-16 -3 -23 -8 -5 -11 -9 -7 -9 9 0 -20 -78 -35 -98 -6 -7 -12 -24 -13 -36 -5
-45 -57 -176 -80 -201 -29 -31 -29 -34 -6 -51 16 -12 15 -14 -8 -39 -14 -15
-37 -35 -51 -46 l-26 -18 5 77 c3 42 8 79 11 82 8 7 41 58 41 64 0 3 -11 1
-25 -4 -21 -8 -25 -7 -24 8 0 9 5 26 10 37 8 17 8 15 4 -7 -7 -37 21 -39 35
-3 13 33 22 32 15 -2 -5 -26 -4 -25 14 7 18 33 18 68 0 39 -13 -20 -11 -9 7
36 14 38 15 38 10 7 -3 -18 -2 -31 3 -28 9 6 25 64 22 84 -2 15 61 132 71 132
5 0 8 9 8 20 0 11 5 20 12 20 6 0 9 3 6 6 -9 9 -81 -31 -117 -65 -18 -17 -36
-31 -40 -31 -10 0 -41 -60 -41 -80 0 -10 -5 -22 -11 -25 -6 -4 -10 -1 -8 6 1
8 1 23 0 34 -2 19 -3 19 -13 -2 -13 -26 -31 -32 -21 -7 5 13 2 15 -18 9 -42
-13 -91 -34 -204 -90 -60 -30 -118 -56 -127 -59 -12 -3 -16 -11 -12 -23 4 -13
3 -14 -3 -5 -12 16 -143 -41 -143 -63 0 -9 -10 -15 -26 -15 -14 0 -45 -11 -70
-25 -57 -32 -72 -31 -85 3 -12 29 -6 572 12 1116 5 165 6 303 2 306 -11 10
-435 31 -546 28 -72 -3 -90 -6 -98 -21 -6 -9 -15 -15 -20 -12 -5 4 -7 11 -3
16 3 6 -3 13 -14 16 -11 2 -28 20 -38 39 -10 19 -20 34 -22 34 -2 0 -17 -8
-35 -17 -26 -14 -64 -18 -202 -20 -93 -2 -185 0 -202 3 -30 4 -33 8 -33 40 0
19 5 44 10 54 7 14 7 25 -2 39 -9 16 -9 39 1 110 13 94 9 131 -14 131 -8 0
-18 8 -24 18 -8 13 -14 15 -28 6 -27 -17 -27 -42 1 -82 38 -56 46 -86 46 -175
0 -61 -4 -89 -17 -107 -21 -32 -34 -40 -48 -32 -5 3 -62 7 -126 8 -135 2 -159
7 -160 37 l0 22 -11 -23 c-10 -19 -19 -23 -57 -22 -25 0 -93 -1 -151 -3 l-105
-2 -1 -30 c-2 -107 -4 -115 -24 -115 -13 0 -20 -7 -20 -19 0 -31 11 -51 29
-51 20 0 75 -67 62 -75 -6 -3 -28 13 -50 37 -22 23 -43 39 -47 36 -3 -4 4 -28
15 -53 12 -26 21 -64 21 -84 0 -40 -23 -81 -45 -81 -18 0 -23 21 -27 97 -2 35
-6 63 -9 63 -16 0 -139 301 -139 339 0 13 -6 21 -16 21 -43 0 -94 66 -65 84
10 7 20 53 13 61 -3 2 -10 -2 -16 -11 -15 -19 -46 -8 -46 16 0 10 11 32 25 48
14 17 25 32 25 35 0 3 -14 8 -30 12 -26 6 -30 11 -30 41 0 22 -6 37 -15 40
-10 4 -12 10 -7 18 14 18 21 96 11 123 -6 17 -5 32 5 52 8 15 17 63 21 107 5
67 4 76 -8 60 -11 -16 -17 -17 -36 -6 -15 8 -20 17 -16 28 3 9 11 37 16 62 5
25 14 51 18 59 14 22 41 5 41 -25 0 -42 14 -19 20 34 5 44 7 47 31 44 37 -3
43 21 14 57 -19 21 -25 41 -25 74 0 31 -5 47 -15 51 -10 3 -15 20 -15 48 l-1
43 -20 -27 c-11 -16 -27 -28 -34 -28 -16 0 -28 -27 -15 -35 15 -9 11 -106 -5
-135 -8 -16 -10 -29 -4 -36 6 -8 4 -17 -6 -27 -8 -9 -15 -29 -15 -46 0 -41
-20 -133 -32 -148 -6 -7 -15 -10 -20 -7 -6 4 -14 1 -18 -6 -12 -20 -40 -4 -52
30 -6 19 -16 29 -23 26 -7 -2 -23 6 -36 20 -30 31 -34 25 -13 -20 10 -21 25
-36 35 -36 24 0 30 -24 13 -48 -12 -17 -12 -25 2 -57 8 -20 12 -45 9 -56 -5
-14 -3 -17 9 -13 26 10 46 -15 46 -57 0 -22 -3 -39 -6 -39 -4 0 -22 14 -41 30
-37 33 -53 38 -53 16 0 -8 10 -16 23 -20 13 -3 49 -32 80 -65 55 -57 57 -61
57 -114 0 -40 6 -61 21 -81 15 -20 17 -26 6 -26 -21 0 -67 -39 -67 -57 0 -8
-11 -38 -25 -66 -24 -48 -27 -77 -7 -77 5 0 12 13 15 29 3 16 13 31 23 35 14
5 15 1 10 -26 -3 -18 -9 -55 -12 -83 -3 -27 -11 -68 -18 -90 -7 -22 -12 -60
-10 -84 2 -24 0 -49 -4 -55 -3 -6 -5 -45 -3 -86 2 -71 -18 -160 -38 -160 -3 0
-7 -71 -8 -158 -2 -184 -5 -206 -24 -210 -18 -3 -55 89 -70 173 -6 33 -16 66
-22 74 -7 8 -12 42 -13 75 -1 34 -2 86 -4 116 -2 30 3 72 10 94 8 24 10 57 6
88 -5 33 -3 55 5 64 7 9 8 14 1 14 -15 0 -20 30 -10 64 6 22 3 35 -8 48 -9 9
-21 15 -26 12 -6 -4 -6 -10 1 -17 16 -16 14 -22 -15 -57 -25 -29 -25 -32 -9
-44 23 -17 16 -52 -10 -48 -32 6 -41 20 -27 42 10 17 10 20 -3 20 -9 0 -18 7
-21 15 -9 23 -44 19 -44 -5 0 -11 -4 -20 -10 -20 -31 0 -270 212 -270 240 0
10 7 36 15 59 15 45 10 46 -32 8 -38 -34 -82 5 -48 43 18 20 13 40 -12 40 -10
0 -13 5 -8 18 3 9 11 42 17 72 5 30 16 67 24 82 8 15 13 40 12 55 -3 41 8 53
48 53 21 0 33 4 29 10 -7 12 -85 4 -98 -9 -5 -5 -13 -49 -18 -97 -5 -49 -13
-92 -18 -97 -16 -16 -45 -3 -59 26 -15 32 -37 37 -29 6 4 -14 -1 -22 -16 -28
-21 -8 -21 -8 7 -35 16 -14 32 -26 37 -26 33 0 6 -89 -40 -132 -13 -11 -21
-32 -22 -51 0 -39 -41 -123 -57 -120 -6 2 -17 -18 -23 -43 -13 -50 -31 -64
-60 -45 -24 14 -24 10 0 -31 25 -43 28 -68 12 -97 -8 -14 -11 -38 -7 -59 7
-47 -14 -112 -36 -112 -11 0 -18 8 -18 19 0 14 -5 18 -19 14 -10 -2 -38 5 -62
16 -33 16 -38 17 -20 4 60 -43 64 -49 64 -90 0 -31 3 -40 13 -36 19 7 29 -24
16 -50 -6 -12 -13 -42 -16 -67 -4 -41 -3 -43 10 -26 8 11 14 28 14 38 0 22 27
78 38 78 20 -1 92 -89 92 -113 0 -9 8 -18 19 -22 21 -6 71 -76 71 -99 0 -7 -6
-19 -14 -25 -8 -7 -19 -26 -25 -42 -10 -28 -9 -30 12 -23 12 4 28 15 35 25 19
28 49 23 67 -10 8 -16 37 -57 65 -92 27 -34 50 -66 50 -70 0 -4 20 -29 45 -55
25 -26 48 -59 52 -73 3 -14 17 -39 30 -54 12 -16 23 -34 23 -40 0 -7 11 -29
25 -49 25 -37 36 -118 15 -118 -5 0 -14 -18 -20 -40 -9 -35 -14 -40 -40 -40
-38 0 -42 -10 -24 -56 13 -34 19 -39 49 -40 53 -1 66 -19 65 -83 -1 -31 1
-111 6 -177 9 -147 6 -157 -36 -143 -29 10 -33 9 -69 -32 -32 -36 -41 -42 -53
-31 -21 17 -47 -14 -59 -69 -10 -45 -6 -60 13 -41 21 21 36 13 48 -23 14 -43
24 -49 49 -33 17 10 24 9 44 -10 32 -30 39 -28 32 11 -6 34 16 109 33 115 11
3 27 -131 17 -147 -3 -6 -14 -11 -23 -11 -14 -1 -13 -4 6 -20 30 -25 42 -66
47 -170 8 -152 17 -284 21 -310 2 -14 6 -74 9 -135 2 -60 7 -125 10 -143 3
-18 0 -48 -7 -68 -10 -29 -10 -38 4 -62 12 -20 14 -32 7 -45 -6 -10 -7 -26 -4
-37 3 -11 1 -30 -6 -42 -7 -13 -16 -39 -20 -58 -4 -19 -14 -62 -23 -95 -21
-83 -19 -98 7 -45 31 63 50 59 60 -13 4 -31 4 -64 0 -72 -5 -8 -5 -56 -1 -107
4 -51 8 -154 8 -228 2 -150 11 -218 31 -231 11 -6 11 -11 2 -20 -7 -7 -9 -24
-6 -41 4 -22 0 -35 -18 -55 l-24 -26 23 6 c14 3 25 1 26 -6 35 -131 61 -201
84 -229 19 -23 11 -102 -13 -128 -13 -14 -15 -30 -11 -70 6 -52 -5 -102 -45
-203 -10 -27 -16 -60 -13 -75 3 -15 -1 -35 -9 -46 -11 -15 -17 -16 -34 -7 -33
17 -44 183 -30 426 6 89 5 125 -2 114 -15 -23 -30 -339 -21 -437 5 -46 14 -97
21 -113 16 -40 -1 -119 -46 -214 -35 -75 -105 -268 -136 -375 -27 -98 -68
-208 -92 -254 -12 -23 -26 -56 -32 -75 -17 -57 -35 -51 -35 13 0 31 -4 56 -10
56 -5 0 -10 -15 -10 -33 0 -18 -7 -42 -15 -53 -8 -10 -15 -30 -15 -43 0 -14
-10 -36 -22 -49 -16 -17 -19 -26 -10 -29 30 -11 -6 -113 -40 -113 -11 0 -22
-8 -25 -20 -3 -11 -14 -20 -24 -20 -25 0 -25 43 0 67 22 22 41 75 41 119 0 18
5 45 10 60 7 18 7 30 -1 40 -7 8 -8 43 -4 103 6 88 6 90 -17 93 -17 2 -23 10
-24 28 0 14 -4 35 -8 47 -4 13 3 67 19 135 34 144 32 139 50 132 10 -4 15 -19
15 -45 0 -41 7 -48 28 -27 28 28 45 -60 18 -95 -23 -30 -36 -20 -36 28 0 47
-12 58 -29 26 -6 -11 -7 -30 -2 -48 5 -17 7 -43 4 -59 l-4 -29 17 22 c32 44
74 23 74 -38 0 -21 4 -41 10 -44 6 -4 10 10 10 36 0 23 5 59 12 80 10 35 9 44
-15 92 -30 58 -27 94 6 99 28 4 33 24 7 31 -23 6 -28 55 -8 75 7 7 11 30 10
52 -2 29 1 40 11 40 20 0 36 21 43 58 4 21 3 32 -5 32 -6 0 -11 -6 -11 -13 0
-8 -11 -24 -25 -37 -22 -21 -25 -21 -31 -6 -4 9 -3 34 0 54 19 105 27 165 31
242 6 114 21 160 51 160 18 0 25 -7 30 -28 10 -44 12 -49 13 -19 1 29 36 71
51 62 6 -4 20 -3 31 0 15 5 18 10 10 18 -6 6 -11 20 -11 30 0 16 -3 17 -14 7
-8 -6 -23 -10 -34 -8 -10 2 -26 -3 -35 -11 -10 -8 -17 -9 -17 -3 0 6 5 14 11
17 6 4 8 14 5 22 -8 20 19 69 42 75 13 4 21 18 26 44 5 30 16 47 51 74 42 33
75 84 62 97 -9 8 -37 -16 -37 -32 0 -7 -18 -31 -40 -54 -22 -22 -40 -45 -40
-49 0 -12 -44 -52 -58 -52 -22 0 -34 39 -23 72 6 17 11 42 11 54 0 13 4 24 9
24 14 0 23 32 12 43 -7 7 -7 16 0 29 6 11 6 25 1 34 -11 21 -16 12 -32 -54 -7
-30 -18 -56 -25 -59 -9 -3 -12 -15 -8 -37 3 -23 -1 -38 -16 -56 l-20 -25 -1
41 c0 22 5 45 11 51 11 11 3 53 -10 53 -10 0 -26 -178 -26 -296 0 -70 -4 -96
-16 -110 -9 -11 -14 -25 -12 -31 6 -15 -13 -17 -22 -3 -12 19 -30 10 -45 -23
-8 -17 -13 -40 -11 -51 4 -28 -39 -136 -55 -136 -23 0 -18 92 7 124 l20 26
-25 0 c-22 0 -27 7 -41 52 -8 29 -18 90 -22 136 -4 61 -9 82 -19 78 -23 -9
-45 82 -51 209 -4 80 -11 124 -20 133 -22 22 -20 123 4 187 8 22 19 58 24 80
6 22 14 44 20 50 12 12 12 95 -1 95 -10 0 -12 -7 -15 -45 -3 -48 -18 -95 -36
-111 -10 -9 -19 -25 -19 -35 0 -10 -4 -20 -9 -23 -17 -11 -19 -62 -5 -121 7
-33 21 -115 29 -181 16 -131 60 -332 93 -429 33 -95 34 -164 3 -172 -20 -5
-35 -50 -19 -59 5 -3 6 -25 3 -48 -6 -37 -4 -44 13 -48 40 -11 37 -158 -3
-158 -11 0 -15 -6 -11 -17 16 -54 15 -69 -5 -92 -17 -21 -22 -22 -30 -10 -6
10 -9 8 -9 -12 0 -27 -25 -57 -37 -45 -4 4 -2 24 3 44 11 40 8 62 -6 62 -5 0
-11 -9 -15 -19 -3 -11 -14 -21 -23 -23 -11 -2 -17 -13 -17 -33 0 -22 -5 -31
-20 -33 -11 -2 -28 -14 -38 -28 l-18 -24 50 0 c50 0 50 0 57 -38 4 -20 13 -46
20 -57 8 -11 14 -30 14 -42 0 -13 5 -23 10 -23 6 0 10 8 10 18 0 10 5 23 12
30 8 8 8 15 1 24 -20 25 -23 64 -7 86 19 28 32 28 45 -1 7 -17 8 -35 1 -60 -7
-25 -7 -39 0 -43 13 -8 1 -133 -15 -152 -6 -7 -19 -11 -29 -9 -15 4 -18 -1
-18 -36 0 -53 -20 -169 -31 -181 -5 -6 -9 -30 -9 -53 0 -24 -7 -57 -15 -72 -8
-16 -12 -31 -8 -34 3 -4 -1 -17 -9 -29 -8 -13 -21 -46 -27 -75 -14 -56 -32
-79 -56 -69 -11 4 -15 20 -15 57 0 30 -6 59 -13 68 -14 15 -67 228 -67 264 0
9 -4 17 -8 17 -5 0 -19 31 -32 70 -13 38 -25 70 -26 70 -2 0 -3 -85 -4 -189
l0 -188 23 4 c22 4 25 -2 45 -69 28 -92 28 -109 -2 -137 -20 -19 -22 -26 -13
-50 5 -15 25 -38 44 -51 39 -27 41 -48 13 -121 -26 -65 -22 -98 6 -51 22 37
45 38 55 2 26 -93 -15 -345 -55 -345 -15 0 -23 15 -38 75 -11 41 -23 93 -27
115 l-8 40 -12 -32 c-7 -18 -17 -33 -22 -33 -5 0 -9 -28 -9 -62 1 -62 1 -62
16 -35 8 15 21 27 28 27 13 0 26 -49 26 -102 0 -20 5 -28 18 -28 24 0 42 -19
42 -46 0 -31 18 -39 40 -19 17 15 20 16 25 3 13 -33 -19 -183 -37 -172 -4 3
-15 -1 -23 -10 -12 -12 -13 -26 -6 -78 7 -49 6 -68 -5 -85 -8 -12 -14 -29 -14
-38 0 -23 -29 -18 -40 8 l-9 22 0 -22 c-1 -12 8 -39 20 -60 15 -27 20 -48 16
-82 -6 -63 -27 -164 -37 -176 -4 -5 -16 -37 -25 -70 -10 -33 -21 -64 -26 -69
-5 -6 -9 -46 -9 -90 l1 -81 31 34 c29 33 30 37 25 98 -4 38 -2 74 5 91 22 54
59 199 68 267 10 76 27 98 70 93 19 -2 24 -8 22 -23 -15 -91 -17 -85 16 -85
23 0 35 7 48 29 28 47 51 55 122 41 72 -15 92 -9 92 24 0 44 48 249 79 338 17
49 31 97 31 109 0 34 50 232 64 254 7 11 16 36 19 55 2 19 17 78 32 130 14 52
30 120 34 150 19 129 45 223 78 278 39 65 81 112 100 112 16 0 33 32 33 65 0
15 6 39 14 53 8 15 30 63 50 107 31 70 33 76 12 51 -14 -17 -27 -41 -31 -54
-10 -40 -66 -132 -87 -143 -21 -11 -37 1 -38 26 0 28 72 370 84 400 8 19 27
77 42 131 15 53 38 109 50 123 13 15 30 59 39 97 9 38 28 94 42 124 14 30 44
93 65 140 22 47 47 94 57 105 10 11 26 41 35 66 10 25 35 69 57 97 38 52 47
79 31 98 -16 17 -35 92 -28 109 5 14 2 16 -11 10 -84 -35 -91 -14 -68 215 7
75 24 150 37 167 5 7 6 37 3 67 -6 43 -4 62 8 80 11 17 13 26 5 34 -8 8 -8 22
0 50 7 22 12 57 12 80 0 25 5 42 14 45 11 4 13 23 9 89 -7 102 7 141 67 189
82 66 89 74 95 100 9 35 -18 63 -46 49 -30 -17 -42 -3 -33 39 4 20 8 50 10 66
1 17 8 44 15 61 15 37 5 86 -15 78 -8 -3 -17 3 -20 14 -11 33 1 154 19 199 11
27 14 48 8 60 -12 23 -8 129 8 213 6 36 11 98 9 138 -2 73 -1 73 37 109 21 19
59 49 86 65 26 16 47 34 47 39 0 16 -16 10 -61 -24 -53 -41 -83 -57 -103 -57
-22 0 -20 26 3 49 20 20 24 54 41 296 9 143 33 235 82 322 33 58 35 80 3 32
-11 -16 -27 -28 -35 -27 -21 4 -28 41 -29 150 -1 55 -5 100 -11 103 -15 9 -60
105 -60 127 0 15 57 101 79 118 3 3 21 25 40 50 19 25 39 51 45 59 9 12 8 12
-11 3 -12 -7 -25 -17 -28 -22 -3 -6 -11 -10 -16 -10 -11 0 -3 78 12 118 6 15
5 22 -3 22 -6 0 -2 10 10 23 23 24 30 43 11 32 -14 -9 18 66 36 85 13 12 15
11 15 -10 0 -24 0 -24 14 -5 7 11 19 37 25 57 15 46 30 57 47 33 15 -20 14
-205 -1 -239 -5 -12 -3 -21 5 -26 11 -7 13 -41 12 -147 -2 -163 -9 -213 -34
-272 l-18 -43 25 -24 25 -23 -4 -173 c-2 -95 -4 -240 -4 -323 -1 -110 -5 -162
-16 -194 -22 -59 -21 -108 2 -115 25 -8 77 -7 163 1 41 5 91 8 110 7 19 -1
177 -2 352 -3 l317 -2 0 -28 c0 -36 -20 -85 -113 -276 -38 -79 -46 -107 -62
-220 -10 -72 -30 -168 -45 -215 -15 -47 -33 -110 -39 -140 -15 -75 -64 -434
-77 -560 -4 -36 -10 -70 -15 -75 -4 -6 -10 -60 -12 -120 -3 -61 -7 -134 -10
-162 -4 -41 -2 -53 9 -53 8 0 14 -3 14 -7 1 -5 3 -89 6 -188 2 -99 9 -207 15
-240 8 -47 7 -83 -6 -165 -9 -58 -18 -163 -21 -235 -3 -71 -10 -144 -15 -162
-11 -34 -98 -127 -141 -149 -16 -8 -28 -18 -28 -22 0 -19 -116 -146 -176 -194
-90 -70 -158 -159 -237 -311 -37 -70 -67 -130 -67 -134 0 -21 59 54 64 81 14
75 149 256 191 256 8 0 22 15 31 32 22 43 92 113 149 149 26 16 45 36 45 46 0
10 25 37 55 60 30 24 55 49 55 57 0 19 27 46 46 46 17 0 18 -56 2 -155 -6 -38
-10 -91 -9 -118 3 -68 -22 -140 -67 -195 -21 -26 -44 -60 -52 -77 -8 -16 -21
-39 -31 -50 -9 -11 -19 -29 -23 -40 -5 -16 -2 -15 13 5 121 155 158 193 165
168 2 -7 9 -58 16 -113 8 -57 27 -143 47 -200 19 -55 39 -115 45 -132 11 -31
9 -35 -24 -67 -50 -49 -68 -93 -68 -169 0 -52 5 -71 25 -101 30 -45 31 -52 5
-66 -27 -14 -51 -63 -66 -135 -21 -93 -17 -157 11 -228 14 -35 25 -68 24 -73
-1 -5 1 -17 5 -26 5 -10 3 -32 -3 -49 -17 -50 -13 -125 9 -169 11 -21 24 -41
30 -45 21 -13 60 -125 60 -175 0 -20 -2 -22 -10 -10 -8 13 -10 12 -10 -3 0
-11 9 -21 20 -24 12 -3 31 -26 45 -52 23 -46 23 -49 9 -127 -41 -232 -43 -196
18 -409 10 -39 9 -43 -24 -90 -82 -116 -90 -155 -58 -297 12 -53 11 -58 -10
-88 -13 -18 -35 -65 -50 -106 l-28 -74 1064 0 c1053 0 1064 0 1052 20 -20 31
0 36 30 7 l28 -27 342 0 341 0 -25 25 c-22 22 -24 28 -13 41 12 14 16 13 37
-11 13 -15 21 -34 18 -41 -5 -12 235 -14 1554 -14 l1560 0 0 38 c0 20 -9 71
-20 112 -11 41 -20 83 -20 92 0 9 18 42 39 73 51 73 65 132 57 243 -5 63 -3
106 9 157 20 91 39 627 25 723 -11 79 -13 223 -2 237 4 6 30 26 59 45 63 42
93 91 93 153 0 65 -12 89 -82 164 l-62 66 40 14 c21 8 75 14 120 14 58 -1 86
4 100 15 17 14 11 15 -74 11 -160 -8 -209 27 -138 98 20 20 44 52 55 73 47 91
52 133 66 512 8 201 14 426 15 501 0 75 4 171 9 215 25 208 31 293 32 464 1
148 5 199 20 255 10 38 20 103 20 145 1 41 5 109 8 150 l6 75 14 -60 c7 -33
17 -65 22 -71 5 -6 7 -24 4 -40 -2 -16 -7 -71 -10 -121 -5 -79 -3 -93 9 -93
19 0 24 21 29 135 4 81 8 96 38 145 33 53 34 58 34 165 1 60 -2 164 -6 230 -4
66 -10 176 -14 245 -3 69 -8 132 -10 140 -2 8 -9 65 -15 125 -28 287 -40 372
-80 545 -31 135 -83 310 -114 384 -36 86 -113 201 -190 283 -85 91 -274 259
-325 289 -18 10 -35 32 -42 51 -13 40 -43 63 -82 63 -18 0 -39 10 -57 28 -47
46 -87 72 -111 72 -12 0 -56 23 -96 51 -40 28 -113 68 -161 90 -48 22 -126 60
-173 84 -95 50 -174 66 -296 61 -40 -2 -73 1 -73 5 0 5 -8 9 -18 9 -9 0 -53
14 -97 31 -44 17 -152 56 -240 86 -88 30 -168 62 -177 70 -10 9 -30 37 -45 62
-14 25 -50 82 -80 127 -29 44 -53 86 -53 92 0 7 18 48 40 92 47 94 75 191 90
320 6 52 16 111 20 130 9 35 10 35 57 32 41 -3 54 1 87 27 21 17 36 31 32 31
-4 0 0 7 8 16 18 18 21 40 6 49 -6 4 -7 12 -3 18 10 15 10 38 0 55 -9 14 16
28 32 18 32 -20 104 280 79 328 -8 14 -7 17 2 11 19 -12 8 142 -13 182 -31 59
-53 72 -118 70 -67 -2 -70 3 -44 66 8 20 15 62 15 93 0 32 4 71 10 88 5 17 23
71 40 121 57 170 51 340 -16 431 -60 81 -138 174 -147 174 -5 0 -6 7 -3 16 6
17 -40 81 -56 76 -5 -1 -13 9 -18 23 -5 14 -25 34 -43 45 -19 11 -56 48 -83
81 -58 72 -138 136 -212 167 -30 13 -68 32 -85 43 -18 10 -42 19 -54 19 -13 0
-52 11 -89 25 l-66 25 -377 -1 c-344 0 -379 -2 -416 -19z m610 -29 c-3 -6 -11
-11 -17 -11 -6 0 -6 6 2 15 14 17 26 13 15 -4z m275 -11 c0 -5 -2 -10 -4 -10
-3 0 -8 5 -11 10 -3 6 -1 10 4 10 6 0 11 -4 11 -10z m150 -80 c0 -5 -2 -10 -4
-10 -3 0 -8 5 -11 10 -3 6 -1 10 4 10 6 0 11 -4 11 -10z m-950 -32 c0 -5 -2
-8 -4 -8 -2 0 -11 -3 -19 -6 -8 -3 -17 1 -19 8 -4 8 3 13 18 13 13 0 24 -3 24
-7z m104 -23 c-4 -8 -8 -15 -10 -15 -2 0 -4 7 -4 15 0 8 4 15 10 15 5 0 7 -7
4 -15z m86 -95 c0 -5 -4 -10 -10 -10 -5 0 -10 5 -10 10 0 6 5 10 10 10 6 0 10
-4 10 -10z m120 -70 c0 -5 -8 -10 -17 -10 -15 0 -16 2 -3 10 19 12 20 12 20 0z
m-603 -16 c-3 -3 -12 -4 -19 -1 -8 3 -5 6 6 6 11 1 17 -2 13 -5z m553 -9 c0
-1 -11 -5 -24 -7 -16 -3 -23 -1 -19 7 3 10 43 10 43 0z m249 -116 c35 -28 22
-32 -14 -3 -16 13 -25 24 -20 24 6 -1 21 -10 34 -21z m-979 -9 c-8 -5 -24 -9
-35 -9 l-20 0 20 9 c11 5 27 9 35 9 13 1 13 0 0 -9z m-10 -115 c-7 -9 -15 -13
-19 -10 -3 3 1 10 9 15 21 14 24 12 10 -5z m1443 -22 c-7 -2 -19 -2 -25 0 -7
3 -2 5 12 5 14 0 19 -2 13 -5z m-1463 -13 c0 -5 -4 -10 -10 -10 -5 0 -10 5
-10 10 0 6 5 10 10 10 6 0 10 -4 10 -10z m170 -4 c0 -3 -4 -8 -10 -11 -5 -3
-10 -1 -10 4 0 6 5 11 10 11 6 0 10 -2 10 -4z m985 -76 c3 -5 2 -10 -4 -10 -5
0 -13 5 -16 10 -3 6 -2 10 4 10 5 0 13 -4 16 -10z m-1227 -40 c-7 -10 -14 -17
-17 -15 -4 4 18 35 25 35 2 0 -1 -9 -8 -20z m92 -10 c0 -5 -5 -10 -11 -10 -5
0 -7 5 -4 10 3 6 8 10 11 10 2 0 4 -4 4 -10z m1150 -30 c0 -13 -11 -13 -30 0
-12 8 -11 10 8 10 12 0 22 -4 22 -10z m-1246 -45 c-4 -8 -10 -15 -15 -15 -4 0
-6 7 -3 15 4 8 10 15 15 15 4 0 6 -7 3 -15z m1024 -19 c-10 -7 -15 -16 -11
-19 3 -4 1 -7 -5 -7 -18 0 -14 18 6 29 24 15 30 13 10 -3z m-1123 -6 c3 -5 -1
-10 -9 -10 -8 0 -18 5 -21 10 -3 6 1 10 9 10 8 0 18 -4 21 -10z m61 -16 c-4
-9 -9 -15 -11 -12 -3 3 -3 13 1 22 4 9 9 15 11 12 3 -3 3 -13 -1 -22z m-36
-18 c0 -3 -4 -8 -10 -11 -5 -3 -10 -1 -10 4 0 6 5 11 10 11 6 0 10 -2 10 -4z
m1731 -319 c-1 -12 -15 -9 -19 4 -3 6 1 10 8 8 6 -3 11 -8 11 -12z m-4841
-161 c0 -3 -4 -8 -10 -11 -5 -3 -10 -1 -10 4 0 6 5 11 10 11 6 0 10 -2 10 -4z
m0 -56 c0 -18 -19 -11 -30 11 -11 19 -10 20 9 9 12 -6 21 -15 21 -20z m4090
20 c0 -5 -5 -10 -11 -10 -5 0 -7 5 -4 10 3 6 8 10 11 10 2 0 4 -4 4 -10z
m-526 -57 c14 -20 24 -39 21 -41 -6 -6 -65 55 -65 67 0 22 20 10 44 -26z
m-3456 10 c-2 -10 -10 -18 -18 -18 -8 0 -16 8 -18 18 -2 12 3 17 18 17 15 0
20 -5 18 -17z m3156 -91 c-4 -13 -2 -12 12 3 13 16 15 16 11 3 -3 -9 -1 -19 6
-22 7 -2 1 -5 -13 -5 -14 -1 -20 -5 -15 -9 24 -17 45 -72 40 -102 -3 -17 -1
-39 5 -50 8 -15 8 -20 -2 -21 -7 0 -4 -4 7 -8 11 -5 37 -7 58 -6 20 2 39 -1
43 -6 3 -5 10 -7 15 -4 5 4 5 -4 -1 -19 -6 -17 -6 -26 0 -26 6 0 10 -7 10 -15
0 -8 8 -15 18 -15 15 -1 15 -2 -2 -15 -14 -10 -22 -12 -27 -4 -4 7 -8 5 -12
-5 -3 -8 -3 -17 1 -20 12 -7 62 6 62 16 0 6 6 8 14 5 8 -3 17 -1 19 6 3 7 4
-8 3 -33 -1 -26 4 -55 12 -67 8 -13 10 -23 6 -24 -5 -1 2 -5 16 -9 l25 -8 -28
-1 c-16 -1 -26 -5 -22 -11 3 -6 -5 -14 -19 -20 -18 -7 -24 -14 -20 -27 5 -17
5 -17 -9 0 -19 23 -25 21 -20 -7 4 -21 2 -23 -21 -19 -15 3 -26 1 -26 -6 0
-10 12 -15 31 -13 3 0 10 -13 16 -29 6 -16 7 -29 2 -29 -5 0 -9 6 -9 13 0 8
-4 7 -10 -3 -8 -12 -10 -11 -10 6 0 12 -7 25 -16 28 -25 9 -30 -1 -11 -22 21
-23 21 -32 2 -32 -8 0 -15 7 -15 15 0 18 -11 19 -29 3 -11 -10 -12 -10 -7 -1
7 13 -10 53 -28 65 -6 4 -17 6 -24 3 -8 -3 -10 0 -6 7 5 8 2 9 -9 5 -11 -4
-17 -1 -17 8 0 8 1 16 3 18 1 2 -5 14 -13 27 -9 15 -15 49 -15 87 0 34 -2 60
-4 57 -2 -2 -14 7 -26 20 -19 21 -21 33 -19 125 2 103 8 127 24 102 5 -9 7 3
5 30 -2 24 -1 59 2 77 5 31 6 32 24 17 9 -9 15 -24 13 -33z m-3235 1 c21 -73
8 -85 -16 -15 -15 45 -16 52 -3 52 5 0 14 -17 19 -37z m3286 27 c3 -5 1 -10
-4 -10 -6 0 -11 5 -11 10 0 6 2 10 4 10 3 0 8 -4 11 -10z m-221 -25 c-4 -8 -8
-15 -10 -15 -2 0 -4 7 -4 15 0 8 4 15 10 15 5 0 7 -7 4 -15z m-3014 -100 c0
-8 -4 -15 -10 -15 -5 0 -10 7 -10 15 0 8 5 15 10 15 6 0 10 -7 10 -15z m5090
-161 c0 -8 -19 -13 -24 -6 -3 5 1 9 9 9 8 0 15 -2 15 -3z m-169 -57 c-1 -12
-15 -9 -19 4 -3 6 1 10 8 8 6 -3 11 -8 11 -12z m65 -24 c8 -11 13 -13 14 -5 0
6 5 12 10 12 6 0 5 -9 -2 -21 -10 -17 -10 -23 0 -26 6 -3 12 -11 12 -18 0 -7
-6 -16 -12 -18 -7 -3 -3 -6 10 -6 15 -1 22 -7 22 -22 0 -11 -5 -17 -10 -14 -6
4 -8 10 -5 15 3 4 -5 10 -16 13 -16 4 -19 11 -14 26 4 13 2 21 -6 21 -16 0
-38 31 -32 47 7 17 13 16 29 -4z m-908 -15 c2 -9 -5 -18 -15 -21 -14 -3 -9 -8
19 -20 52 -24 120 -92 133 -136 6 -19 4 -23 -9 -18 -24 9 -30 -12 -10 -34 16
-17 16 -22 4 -29 -8 -6 -18 -10 -21 -10 -3 0 -11 -11 -17 -25 -14 -31 -49 -46
-80 -34 -15 6 -21 5 -17 -1 11 -17 -21 -11 -47 10 -14 10 -29 16 -33 12 -5 -4
-5 -2 -1 5 4 8 -2 15 -18 19 -14 3 -28 13 -31 23 -2 9 -14 22 -26 29 -14 9
-19 10 -14 2 10 -16 -15 -31 -38 -24 -14 4 -17 1 -15 -13 2 -10 -2 -17 -9 -15
-7 1 -13 -6 -13 -15 -1 -17 -1 -17 -11 0 -5 9 -7 22 -3 29 4 7 3 8 -4 4 -24
-14 -13 62 11 88 13 14 27 23 30 20 7 -7 48 33 62 61 7 12 27 23 52 29 43 9
64 32 38 42 -24 10 -17 27 8 22 13 -2 29 2 36 9 16 17 35 12 39 -9z m802 -3
c15 -8 30 -20 33 -27 2 -7 8 -10 12 -6 4 4 2 14 -5 23 -18 22 -8 27 18 9 25
-17 30 -62 7 -70 -8 -4 -15 -14 -16 -23 0 -12 -2 -11 -8 4 -5 11 -7 23 -5 27
5 8 -15 14 -74 23 -23 4 -42 3 -41 -2 4 -23 -3 -33 -23 -32 -22 0 -22 1 -3 9
17 7 17 9 3 9 -10 1 -18 5 -18 10 0 12 40 41 55 41 5 0 3 -5 -5 -10 -18 -12
-5 -13 41 -3 l34 7 -40 12 c-28 9 -33 13 -17 13 13 1 36 -6 52 -14z m-4802
-38 c2 -17 15 -33 37 -47 44 -27 56 -48 94 -160 17 -52 48 -126 67 -164 37
-69 56 -160 58 -268 1 -29 6 -48 12 -48 6 0 17 -13 24 -29 13 -32 3 -59 -44
-115 -29 -34 -50 -28 -35 11 20 54 2 30 -31 -40 -25 -54 -51 -89 -104 -141
-49 -47 -58 -60 -31 -40 22 15 59 49 82 74 40 43 42 44 43 20 0 -40 -55 -241
-79 -285 -12 -22 -30 -51 -40 -64 -18 -24 -20 -24 -52 -8 -19 8 -43 15 -54 14
-43 -4 -22 108 37 198 l20 30 -29 -32 c-19 -22 -33 -29 -42 -24 -7 5 -11 13
-8 17 5 9 -20 291 -27 309 -2 5 -2 -68 1 -164 5 -144 3 -173 -8 -169 -8 3 -23
20 -34 39 -17 29 -20 54 -21 184 -2 145 4 195 25 195 6 0 17 -12 25 -27 l15
-28 0 45 c0 25 -3 39 -6 33 -6 -17 -39 -17 -46 0 -6 17 8 105 26 159 11 30 14
68 11 121 -4 59 -1 83 11 99 8 13 15 32 15 43 0 12 5 26 11 32 6 6 12 25 14
42 1 17 10 40 19 50 14 15 15 24 6 40 -6 12 -16 21 -22 21 -14 0 -3 56 18 88
19 29 38 24 42 -11z m3717 10 c7 -7 4 -8 -8 -3 -10 3 -25 6 -33 6 -8 0 -14 5
-14 11 0 12 40 2 55 -14z m-155 -44 c0 -7 -4 -13 -9 -13 -11 0 -41 39 -41 53
0 13 49 -27 50 -40z m1038 11 c18 -20 32 -39 32 -44 0 -4 6 -13 14 -19 12 -10
12 -16 -1 -41 -16 -33 -33 -40 -33 -14 0 9 -8 28 -18 42 -18 26 -42 85 -42
103 0 18 17 8 48 -27z m57 27 c3 -5 1 -12 -5 -16 -5 -3 -10 1 -10 9 0 18 6 21
15 7z m-5567 -33 c4 -30 11 -35 29 -17 27 27 123 -41 146 -103 3 -10 13 -18
21 -18 8 0 32 -22 54 -48 26 -31 62 -58 101 -77 52 -26 61 -34 61 -57 0 -19
-9 -31 -34 -46 -19 -11 -42 -33 -52 -49 -10 -15 -19 -29 -20 -31 -1 -2 -13 -5
-26 -6 -22 -3 -99 -75 -136 -127 -7 -10 -30 -22 -52 -25 -37 -6 -38 -8 -33
-38 4 -24 -1 -36 -21 -55 -14 -14 -26 -34 -26 -45 0 -12 -9 -32 -19 -45 -22
-29 -47 -23 -61 14 -5 14 -21 30 -35 35 -14 5 -25 14 -25 19 0 5 -14 25 -30
43 -17 18 -41 49 -55 68 -23 34 -23 36 -7 87 11 36 23 55 41 64 14 8 28 15 30
16 2 2 -8 12 -22 24 -35 27 -34 40 7 126 19 39 32 73 30 76 -8 7 42 101 62
117 9 8 22 15 28 15 6 0 11 5 11 10 0 6 -6 10 -14 10 -21 0 -24 20 -11 60 9
29 17 35 33 33 16 -2 23 -11 25 -30z m5709 6 c-3 -3 -12 -4 -19 -1 -8 3 -5 6
6 6 11 1 17 -2 13 -5z m-84 -31 c-7 -2 -19 -2 -25 0 -7 3 -2 5 12 5 14 0 19
-2 13 -5z m-903 -7 c0 -3 -4 -8 -10 -11 -5 -3 -10 -1 -10 4 0 6 5 11 10 11 6
0 10 -2 10 -4z m1051 -113 c19 -44 18 -70 -2 -57 -5 3 -17 24 -26 47 -14 34
-18 37 -24 21 -4 -10 -8 -13 -8 -6 -1 19 22 51 32 45 5 -3 17 -25 28 -50z
m-1463 35 c-3 -7 -15 -14 -29 -16 -24 -4 -24 -3 -4 12 24 19 38 20 33 4z
m-2733 -28 c3 -5 1 -10 -4 -10 -6 0 -11 5 -11 10 0 6 2 10 4 10 3 0 8 -4 11
-10z m339 -55 c18 -14 36 -22 40 -18 11 11 -4 -80 -16 -94 -6 -7 -7 -13 -2
-13 5 -1 20 -10 33 -20 19 -16 21 -23 11 -34 -6 -8 -18 -12 -26 -9 -17 6 -46
58 -37 66 7 8 -24 57 -36 57 -5 0 -20 10 -33 22 -21 18 -23 25 -14 44 14 31
39 30 80 -1z m2016 -5 c0 -5 -6 -10 -14 -10 -8 0 -18 5 -21 10 -3 6 3 10 14
10 12 0 21 -4 21 -10z m1233 3 c3 -5 -14 -9 -36 -10 -34 -1 -37 0 -17 7 33 11
48 12 53 3z m878 -16 c-10 -9 -11 -8 -5 6 3 10 9 15 12 12 3 -3 0 -11 -7 -18z
m-3491 -44 c0 -10 -9 -13 -27 -11 -31 3 -42 30 -22 55 12 13 15 13 31 -7 10
-12 18 -29 18 -37z m-890 36 c0 -6 8 -8 19 -4 26 8 35 -10 15 -29 -14 -15 -14
-17 0 -32 22 -21 20 -43 -2 -37 -35 9 -74 113 -42 113 6 0 10 -5 10 -11z
m2310 -19 c0 -5 -4 -10 -10 -10 -5 0 -10 5 -10 10 0 6 5 10 10 10 6 0 10 -4
10 -10z m2055 0 c3 -5 1 -10 -4 -10 -6 0 -11 5 -11 10 0 6 2 10 4 10 3 0 8 -4
11 -10z m-4578 -22 c-3 -8 -6 -5 -6 6 -1 11 2 17 5 13 3 -3 4 -12 1 -19z
m2468 1 c-7 -10 -35 -1 -35 11 0 5 9 6 20 3 11 -3 17 -9 15 -14z m1428 -65
c10 -19 17 -41 17 -49 0 -29 -15 -14 -35 32 -11 26 -22 51 -23 55 -2 4 3 6 11
3 7 -3 21 -22 30 -41z m-4899 -30 c9 -3 16 -12 16 -19 0 -7 8 -15 18 -18 19
-4 32 -44 32 -94 0 -23 -3 -25 -30 -19 -36 7 -37 0 -10 -79 21 -60 25 -97 13
-109 -18 -18 -21 -162 -3 -180 5 -5 10 -28 10 -50 1 -63 45 -105 120 -115 9
-1 80 -135 80 -152 0 -4 11 -20 25 -35 14 -15 25 -32 25 -38 0 -6 7 -23 14
-38 16 -30 32 -129 28 -166 -2 -13 2 -30 8 -37 6 -8 13 -41 15 -74 2 -34 9
-76 15 -95 8 -26 8 -51 1 -92 -15 -77 -15 -76 13 -117 21 -31 26 -52 30 -141
7 -121 -2 -159 -37 -154 -15 2 -23 11 -25 30 -2 17 -11 28 -25 32 -55 15 -249
352 -250 433 0 33 -5 44 -23 53 -12 7 -31 34 -43 61 -11 27 -24 49 -29 49 -5
0 -16 15 -23 33 -7 17 -25 45 -39 60 -14 16 -32 45 -40 66 -8 20 -25 51 -38
68 -12 18 -29 47 -38 65 -26 56 -42 81 -62 98 -11 8 -24 24 -30 35 -6 11 -27
38 -47 60 -20 22 -59 69 -85 104 l-49 63 29 57 c28 57 50 83 66 80 23 -4 32 3
37 30 4 21 13 30 29 33 16 2 25 13 33 38 24 80 87 150 136 150 15 0 83 76 87
97 2 10 9 21 15 25 15 9 12 9 31 2z m1292 -58 c7 -19 -26 -65 -47 -66 -28 0
-29 12 -2 46 28 37 41 42 49 20z m114 6 c0 -5 -7 -9 -15 -9 -8 0 -15 4 -15 9
0 4 7 8 15 8 8 0 15 -4 15 -8z m-614 -174 c-3 -13 -6 -29 -6 -35 0 -18 -27
-16 -34 3 -8 21 11 54 31 54 11 0 14 -6 9 -22z m138 -17 c10 -11 16 -25 14
-31 -4 -14 -48 17 -48 36 0 20 14 18 34 -5z m126 -1 c0 -5 -4 -10 -10 -10 -5
0 -10 5 -10 10 0 6 5 10 10 10 6 0 10 -4 10 -10z m2838 -56 c18 -8 32 -17 32
-20 0 -11 -38 -1 -60 16 -30 24 -15 26 28 4z m-3098 -15 c0 -6 -4 -7 -10 -4
-5 3 -10 11 -10 16 0 6 5 7 10 4 6 -3 10 -11 10 -16z m135 -19 c-10 -11 -23
-20 -28 -20 -6 0 -2 9 8 20 10 11 23 20 28 20 6 0 2 -9 -8 -20z m-845 -106 c0
-16 8 -28 25 -36 26 -12 31 -23 16 -32 -5 -3 -7 -15 -4 -26 3 -11 0 -26 -6
-34 -8 -10 -9 -16 -1 -21 5 -3 10 -13 10 -21 0 -23 -35 -12 -35 11 -1 11 -4
26 -9 33 -5 8 -9 36 -9 63 0 27 -4 49 -9 49 -4 0 -8 14 -8 31 0 27 2 30 15 19
8 -7 15 -23 15 -36z m4594 -126 c26 -34 28 -42 5 -33 -17 6 -52 65 -39 65 5 0
20 -14 34 -32z m-3656 -17 c3 -8 -1 -12 -9 -9 -7 2 -15 10 -17 17 -3 8 1 12 9
9 7 -2 15 -10 17 -17z m-768 -72 c0 -24 -23 -21 -28 4 -2 10 3 17 12 17 10 0
16 -9 16 -21z m1049 -133 c29 -31 22 -42 -29 -50 -26 -4 -40 -11 -40 -21 0
-21 -22 -18 -61 8 -20 14 -33 30 -31 40 2 9 -3 17 -9 17 -7 0 -9 3 -6 7 4 3
37 10 75 13 37 4 70 8 73 9 3 0 16 -10 28 -23z m-939 -6 c0 -22 -20 -26 -38
-8 -19 19 -14 28 13 28 18 0 25 -5 25 -20z m660 -11 c0 -16 -4 -28 -8 -25 -5
3 -8 15 -6 28 3 28 3 28 9 28 3 0 5 -14 5 -31z m2739 -14 l0 -20 -9 20 c-5 11
-9 27 -9 35 -1 13 0 13 9 0 5 -8 9 -24 9 -35z m-399 -189 c0 -11 -19 -15 -25
-6 -3 5 1 10 9 10 9 0 16 -2 16 -4z m2684 -11 c-4 -8 -11 -15 -16 -15 -6 0 -5
6 2 15 7 8 14 15 16 15 2 0 1 -7 -2 -15z m-5605 -14 c14 -9 9 -41 -7 -41 -15
0 -34 28 -27 40 8 12 16 13 34 1z m2895 0 c3 -5 -1 -11 -9 -14 -9 -4 -12 -1
-8 9 6 16 10 17 17 5z m296 -1 c0 -5 -4 -10 -10 -10 -5 0 -10 5 -10 10 0 6 5
10 10 10 6 0 10 -4 10 -10z m-273 -32 c-3 -8 -6 -5 -6 6 -1 11 2 17 5 13 3 -3
4 -12 1 -19z m73 7 c0 -8 -4 -15 -10 -15 -5 0 -10 7 -10 15 0 8 5 15 10 15 6
0 10 -7 10 -15z m2694 0 c-4 -8 -8 -15 -10 -15 -2 0 -4 7 -4 15 0 8 4 15 10
15 5 0 7 -7 4 -15z m-2529 -5 c3 -5 1 -10 -4 -10 -6 0 -11 5 -11 10 0 6 2 10
4 10 3 0 8 -4 11 -10z m-305 -20 c0 -5 -4 -10 -10 -10 -5 0 -10 5 -10 10 0 6
5 10 10 10 6 0 10 -4 10 -10z m-40 -10 c0 -5 -2 -10 -4 -10 -3 0 -8 5 -11 10
-3 6 -1 10 4 10 6 0 11 -4 11 -10z m-74 -34 c20 -21 17 -27 -10 -20 -13 3 -27
1 -30 -5 -4 -6 -12 -11 -18 -11 -6 0 0 11 13 24 30 30 27 29 45 12z m-2681
-40 c9 -13 17 -52 20 -87 2 -35 7 -105 11 -156 6 -86 -6 -183 -25 -183 -18 1
-29 20 -33 60 -3 25 -15 91 -26 146 -22 104 -27 198 -10 188 4 -3 13 8 19 25
13 37 23 39 44 7z m2830 -8 c-3 -7 -17 -14 -30 -14 -21 -2 -24 1 -14 12 14 17
50 19 44 2z m-3322 -85 c55 -86 68 -128 46 -150 -6 -6 -9 -19 -7 -29 3 -16 5
-17 18 -3 12 14 18 8 50 -56 47 -91 210 -334 260 -387 21 -23 41 -56 45 -74
13 -69 -7 -164 -60 -293 -45 -109 -55 -126 -79 -132 -15 -4 -34 -13 -42 -20
-12 -10 -11 -14 8 -23 14 -7 24 -22 26 -39 5 -37 -17 -135 -31 -144 -9 -6 -12
-79 -12 -268 0 -219 -2 -260 -14 -260 -16 0 -51 86 -60 150 -3 22 -10 39 -16
37 -12 -3 -7 -93 6 -106 5 -6 9 -16 9 -23 0 -6 14 -35 30 -63 17 -28 30 -57
30 -64 0 -12 28 -45 64 -74 21 -17 21 -42 0 -42 -14 0 -16 -8 -10 -60 5 -42 4
-60 -4 -60 -9 0 -10 -17 -6 -57 6 -52 0 -99 -30 -245 -5 -21 -12 -28 -30 -28
-24 0 -29 11 -25 57 1 12 -3 24 -9 28 -11 7 -7 -72 5 -83 2 -3 1 -10 -4 -16
-14 -18 -24 -89 -12 -81 6 3 11 14 11 24 0 10 11 28 25 41 20 19 28 21 37 12
10 -10 8 -31 -10 -100 -12 -48 -22 -95 -22 -104 0 -10 -4 -18 -10 -18 -16 0
-12 -19 9 -41 18 -19 18 -20 -8 -48 -15 -17 -30 -26 -35 -21 -5 5 -15 51 -23
102 -8 51 -23 109 -32 128 -13 25 -16 45 -11 68 4 18 4 65 0 105 -5 40 -11
128 -15 197 -3 69 -10 154 -14 190 -5 36 -6 69 -3 74 3 5 4 77 4 159 -1 124 1
154 14 168 10 11 13 26 9 38 -8 28 23 41 40 18 27 -37 28 -9 3 88 l-11 40 -12
-35 -12 -35 -18 34 c-19 37 -26 97 -18 149 5 32 23 45 23 17 0 -22 10 -19 48
18 l34 32 -5 -47 c-5 -54 0 -58 32 -24 21 23 22 25 6 61 l-15 38 -25 -23 c-14
-13 -30 -20 -40 -16 -9 3 -26 1 -37 -5 -35 -19 -48 11 -48 113 0 81 2 88 20
88 18 0 20 -7 21 -57 1 -60 15 -128 18 -88 10 134 11 179 1 214 -13 50 -30 53
-30 6 0 -45 -25 -58 -51 -26 -17 21 -17 24 -3 47 14 20 14 33 5 85 -11 66 -8
84 15 75 21 -8 17 21 -6 44 -21 21 -27 50 -10 50 15 0 12 26 -5 40 -16 14 -21
55 -5 45 6 -4 7 6 4 25 -6 26 -4 30 15 30 26 0 28 26 3 32 -12 4 -23 21 -30
49 -10 39 -9 45 8 62 11 10 20 27 20 37 0 28 -9 25 -21 -7 -11 -27 -11 -28
-19 -6 -17 43 -31 186 -34 350 -2 92 -7 176 -11 186 -5 11 -3 17 7 17 7 0 39
-39 71 -87z m3091 73 c-3 -8 -12 -12 -20 -9 -17 6 -9 23 11 23 8 0 12 -6 9
-14z m36 -15 c0 -12 -20 -25 -27 -18 -7 7 6 27 18 27 5 0 9 -4 9 -9z m287 -23
c-3 -8 -6 -5 -6 6 -1 11 2 17 5 13 3 -3 4 -12 1 -19z m-3541 -2 c18 -14 18
-15 -11 -40 -17 -14 -34 -25 -40 -23 -18 6 -18 50 1 64 22 16 26 16 50 -1z
m3178 -7 c-3 -5 -15 -9 -28 -9 -12 0 -27 -5 -34 -12 -9 -9 -12 -9 -12 0 0 6 6
15 14 19 20 11 67 13 60 2z m-127 -56 c-11 -11 -17 -13 -17 -5 0 7 5 12 11 12
6 0 8 7 4 18 -5 14 -4 15 6 4 11 -10 10 -15 -4 -29z m570 15 c-3 -8 -6 -5 -6
6 -1 11 2 17 5 13 3 -3 4 -12 1 -19z m-457 -20 c0 -5 -9 -3 -20 4 -11 7 -20
16 -20 20 0 5 9 3 20 -4 11 -7 20 -16 20 -20z m-55 3 c-3 -6 -11 -11 -17 -11
-6 0 -6 6 2 15 14 17 26 13 15 -4z m112 -3 c-3 -8 -6 -5 -6 6 -1 11 2 17 5 13
3 -3 4 -12 1 -19z m133 -8 c0 -5 -4 -10 -10 -10 -5 0 -10 5 -10 10 0 6 5 10
10 10 6 0 10 -4 10 -10z m35 0 c3 -5 -1 -10 -10 -10 -9 0 -13 5 -10 10 3 6 8
10 10 10 2 0 7 -4 10 -10z m-577 -16 c27 -8 29 -24 2 -24 -11 0 -20 5 -20 11
0 5 -5 7 -10 4 -6 -4 -8 -11 -4 -16 3 -6 0 -10 -7 -8 -8 1 -23 1 -34 0 -20 -2
-20 -2 -1 -16 16 -12 17 -15 4 -15 -9 0 -18 7 -22 15 -4 12 -12 11 -48 -8 -74
-39 -73 -39 -48 -52 15 -8 19 -15 11 -19 -6 -4 -11 -2 -11 4 0 7 -7 9 -16 6
-8 -3 -12 -2 -9 4 9 14 -29 12 -43 -2 -8 -8 -12 -9 -12 -1 0 13 121 83 144 83
9 0 16 5 16 10 0 6 13 10 29 10 17 0 33 5 36 10 7 12 12 12 43 4z m352 -4 c0
-5 -5 -10 -11 -10 -5 0 -7 5 -4 10 3 6 8 10 11 10 2 0 4 -4 4 -10z m611 -20
c5 0 9 -7 9 -15 0 -21 -9 -19 -31 8 -22 27 -25 45 -3 23 8 -9 20 -16 25 -16z
m-804 14 c-3 -3 -12 -4 -19 -1 -8 3 -5 6 6 6 11 1 17 -2 13 -5z m63 -36 c0
-10 -9 -9 -35 2 -17 8 -16 8 8 7 15 -1 27 -5 27 -9z m1557 -15 c33 -29 58 -73
42 -73 -8 0 -25 17 -39 38 -39 58 -40 67 -3 35z m-1657 -13 c0 -5 -4 -10 -10
-10 -5 0 -10 5 -10 10 0 6 5 10 10 10 6 0 10 -4 10 -10z m124 -5 c3 -8 1 -15
-4 -15 -6 0 -10 7 -10 15 0 8 2 15 4 15 2 0 6 -7 10 -15z m296 11 c0 -3 -4 -8
-10 -11 -5 -3 -10 -1 -10 4 0 6 5 11 10 11 6 0 10 -2 10 -4z m230 -31 c-7 -9
-15 -13 -17 -11 -7 7 7 26 19 26 6 0 6 -6 -2 -15z m80 5 c0 -5 -4 -10 -10 -10
-5 0 -10 5 -10 10 0 6 5 10 10 10 6 0 10 -4 10 -10z m-986 -16 c9 -24 7 -27
-9 -10 -17 17 -19 26 -6 26 5 0 12 -7 15 -16z m858 -19 c-6 -34 -12 -32 -12 6
0 16 4 28 9 25 4 -3 6 -17 3 -31z m-602 11 c0 -3 -4 -8 -10 -11 -5 -3 -10 -1
-10 4 0 6 5 11 10 11 6 0 10 -2 10 -4z m-431 -22 c-7 -9 -24 -20 -37 -25 -13
-5 -21 -13 -18 -17 3 -5 -3 -8 -12 -8 -9 1 -18 -3 -18 -9 -1 -5 2 -9 7 -7 5 1
9 -2 9 -8 0 -15 -23 -12 -46 5 -19 15 -19 15 1 31 11 8 32 18 47 21 15 3 29
11 32 19 3 8 15 14 27 14 19 0 20 -2 8 -16z m136 -14 c3 -6 -1 -7 -9 -4 -18 7
-21 14 -7 14 6 0 13 -4 16 -10z m2891 -17 c-7 -7 -26 7 -26 19 0 6 6 6 15 -2
9 -7 13 -15 11 -17z m-1826 7 c0 -5 -4 -10 -10 -10 -5 0 -10 5 -10 10 0 6 5
10 10 10 6 0 10 -4 10 -10z m-350 -4 c0 -3 -4 -8 -10 -11 -5 -3 -10 -1 -10 4
0 6 5 11 10 11 6 0 10 -2 10 -4z m173 -26 c-3 -11 -7 -20 -9 -20 -2 0 -4 9 -4
20 0 11 4 20 9 20 5 0 7 -9 4 -20z m-1193 -30 c0 -5 -5 -10 -11 -10 -5 0 -7 5
-4 10 3 6 8 10 11 10 2 0 4 -4 4 -10z m217 -32 c-3 -7 -5 -2 -5 12 0 14 2 19
5 13 2 -7 2 -19 0 -25z m-243 6 c9 -23 8 -24 -24 -24 -16 0 -30 -4 -30 -10 0
-5 5 -10 11 -10 5 0 7 -4 4 -10 -3 -5 -14 -10 -24 -10 -25 0 -20 41 6 51 12 4
24 12 28 18 9 16 22 13 29 -5z m176 1 c-7 -9 -15 -13 -17 -11 -7 7 7 26 19 26
6 0 6 -6 -2 -15z m1012 -15 c-9 -16 -18 -25 -20 -20 -4 12 17 50 28 50 5 0 1
-13 -8 -30z m-892 -16 c0 -2 -7 -4 -15 -4 -8 0 -15 4 -15 10 0 5 7 7 15 4 8
-4 15 -8 15 -10z m-200 -4 c0 -5 -4 -10 -10 -10 -5 0 -10 5 -10 10 0 6 5 10
10 10 6 0 10 -4 10 -10z m1120 0 c0 -5 -5 -10 -11 -10 -5 0 -7 5 -4 10 3 6 8
10 11 10 2 0 4 -4 4 -10z m195 -13 c10 -8 14 -16 9 -19 -5 -3 -18 3 -28 13
-22 22 -9 26 19 6z m-1505 -7 c0 -5 -5 -10 -11 -10 -5 0 -7 5 -4 10 3 6 8 10
11 10 2 0 4 -4 4 -10z m-1590 -25 c7 -9 10 -18 7 -21 -10 -11 -37 5 -37 21 0
19 14 19 30 0z m1600 -5 c0 -5 -9 -10 -21 -10 -11 0 -17 5 -14 10 3 6 13 10
21 10 8 0 14 -4 14 -10z m185 -1 c11 -17 -1 -21 -15 -4 -8 9 -8 15 -2 15 6 0
14 -5 17 -11z m-285 -48 c-11 -22 -29 -35 -36 -28 -7 6 27 47 39 47 4 0 3 -9
-3 -19z m1640 9 c0 -5 -5 -10 -11 -10 -5 0 -7 5 -4 10 3 6 8 10 11 10 2 0 4
-4 4 -10z m-1180 -15 c0 -8 -4 -15 -10 -15 -5 0 -10 7 -10 15 0 8 5 15 10 15
6 0 10 -7 10 -15z m1278 -30 c-2 -1 -14 -8 -28 -15 l-25 -13 20 20 c11 11 24
18 28 16 5 -3 7 -6 5 -8z m-1919 -26 c-8 -16 -13 -18 -25 -8 -19 15 -18 27 4
32 26 6 33 -2 21 -24z m366 21 c3 -5 -1 -10 -9 -10 -9 0 -16 5 -16 10 0 6 4
10 9 10 6 0 13 -4 16 -10z m1255 0 c0 -5 -4 -10 -10 -10 -5 0 -10 5 -10 10 0
6 5 10 10 10 6 0 10 -4 10 -10z m-1470 -10 c0 -5 -9 -10 -20 -10 -11 0 -20 -6
-20 -14 0 -24 -14 -25 -35 -3 l-20 20 23 -6 c15 -3 25 0 29 9 6 16 43 19 43 4z
m645 0 c-3 -5 -12 -10 -18 -10 -7 0 -6 4 3 10 19 12 23 12 15 0z m-1360 -10
c3 -5 1 -10 -4 -10 -6 0 -11 5 -11 10 0 6 2 10 4 10 3 0 8 -4 11 -10z m2245 0
c0 -5 -4 -10 -10 -10 -5 0 -10 5 -10 10 0 6 5 10 10 10 6 0 10 -4 10 -10z
m630 -6 c0 -8 -4 -12 -10 -9 -5 3 -10 10 -10 16 0 5 5 9 10 9 6 0 10 -7 10
-16z m-2020 -4 c0 -5 -4 -10 -10 -10 -5 0 -10 5 -10 10 0 6 5 10 10 10 6 0 10
-4 10 -10z m40 6 c0 -3 -4 -8 -10 -11 -5 -3 -10 -1 -10 4 0 6 5 11 10 11 6 0
10 -2 10 -4z m1506 -15 c-7 -11 -68 -43 -73 -38 -2 2 13 12 32 23 19 10 35 23
35 28 0 5 3 7 6 3 3 -3 3 -10 0 -16z m-1606 4 c0 -9 -70 -36 -79 -30 -20 12
-11 24 22 28 17 2 38 5 45 5 6 1 12 0 12 -3z m150 -5 c0 -5 -7 -10 -16 -10 -8
0 -12 5 -9 10 3 6 10 10 16 10 5 0 9 -4 9 -10z m-290 -40 c0 -5 -4 -10 -10
-10 -5 0 -10 5 -10 10 0 6 5 10 10 10 6 0 10 -4 10 -10z m45 0 c3 -5 -1 -10
-10 -10 -9 0 -13 5 -10 10 3 6 8 10 10 10 2 0 7 -4 10 -10z m1595 -15 c0 -7
-58 -35 -72 -35 -7 1 5 9 27 20 45 22 45 22 45 15z m-1250 -68 c0 -13 -29 12
-42 37 -10 19 -8 18 16 -3 14 -14 26 -29 26 -34z m1148 17 c14 5 14 4 -2 -9
-24 -18 -36 -11 -35 23 l0 27 10 -24 c6 -16 14 -21 27 -17z m-990 -4 c7 -11 8
-20 3 -20 -12 0 -41 29 -41 40 0 15 24 1 38 -20z m1467 20 c3 -5 1 -10 -4 -10
-6 0 -11 5 -11 10 0 6 2 10 4 10 3 0 8 -4 11 -10z m-1925 -64 c0 -3 -4 -8 -10
-11 -5 -3 -10 -1 -10 4 0 6 5 11 10 11 6 0 10 -2 10 -4z m2690 -206 c0 -5 -4
-10 -10 -10 -5 0 -10 5 -10 10 0 6 5 10 10 10 6 0 10 -4 10 -10z m-2012 -22
c7 -7 12 -18 12 -25 0 -8 -7 -6 -20 7 -11 11 -20 22 -20 25 0 9 16 5 28 -7z
m1902 -28 c0 -5 -10 -10 -22 -9 -22 0 -22 1 -3 9 11 5 21 9 23 9 1 1 2 -3 2
-9z m-1433 -192 c-3 -8 -6 -5 -6 6 -1 11 2 17 5 13 3 -3 4 -12 1 -19z m-2784
-30 c-11 -82 -36 -115 -49 -64 -9 38 13 106 35 106 17 0 18 -6 14 -42z m4896
-67 c13 -10 22 -24 20 -30 -5 -14 -59 23 -59 40 0 14 12 11 39 -10z m-4841
-34 c4 -20 -25 -34 -40 -19 -15 15 -1 44 19 40 10 -2 19 -11 21 -21z m-74
-157 c-3 -165 -12 -254 -28 -265 -10 -8 -13 -24 -9 -57 3 -26 2 -86 -2 -133
-6 -73 -9 -86 -23 -83 -20 4 -30 62 -31 181 -1 72 1 79 20 84 17 5 20 11 14
32 -15 62 -27 142 -32 219 -4 70 -2 82 11 82 9 0 22 11 28 25 8 18 18 25 32
23 20 -3 21 -9 20 -108z m2562 33 c-6 -6 -41 31 -57 62 -6 11 6 3 26 -18 20
-21 34 -41 31 -44z m2303 -44 c17 -6 31 -15 31 -19 0 -11 -58 8 -66 21 -7 12
-4 11 35 -2z m-2119 -137 c14 -12 20 -24 16 -31 -6 -9 -14 -7 -32 10 -40 38
-26 55 16 21z m2173 -55 c30 -51 44 -97 29 -97 -12 0 -82 127 -74 135 12 11
21 3 45 -38z m-2216 11 c26 -24 30 -40 9 -32 -16 6 -51 54 -39 54 4 0 17 -10
30 -22z m2945 -150 c4 -49 2 -57 -14 -61 -16 -5 -18 1 -16 69 4 88 23 83 30
-8z m165 50 c-3 -8 -6 -5 -6 6 -1 11 2 17 5 13 3 -3 4 -12 1 -19z m-2487 -89
c26 -33 30 -43 19 -50 -21 -13 -28 -11 -54 19 -24 27 -31 52 -18 65 12 12 19
7 53 -34z m-200 -129 c0 -5 -5 -10 -11 -10 -5 0 -7 5 -4 10 3 6 8 10 11 10 2
0 4 -4 4 -10z m-218 -57 c23 -21 26 -52 2 -33 -18 16 -38 50 -28 50 4 0 16 -7
26 -17z m-549 -21 c10 -10 14 -21 11 -25 -9 -9 -40 9 -48 28 -8 21 17 19 37
-3z m5001 -59 c7 -58 9 -153 6 -248 -2 -64 -3 -66 -10 -30 -10 55 -18 325 -9
325 4 0 10 -21 13 -47z m-2834 -39 c0 -8 -5 -12 -10 -9 -6 4 -8 11 -5 16 9 14
15 11 15 -7z m-220 -54 c13 -11 18 -20 13 -20 -15 0 -61 39 -47 40 6 0 21 -9
34 -20z m-250 -97 c13 -17 17 -30 11 -36 -14 -14 -38 7 -44 38 -6 32 6 32 33
-2z m2506 -31 c-4 -3 -14 2 -24 12 -16 18 -16 18 6 6 13 -6 21 -14 18 -18z
m-2449 -44 c1 -13 9 -28 18 -34 21 -16 19 -21 -11 -27 -18 -3 -27 0 -31 12 -2
9 -9 24 -14 33 -14 28 -11 38 14 38 16 0 23 -6 24 -22z m-243 -55 c14 -20 23
-39 21 -42 -6 -6 -75 60 -75 71 0 21 32 4 54 -29z m1534 -28 c-3 -3 -9 2 -12
12 -6 14 -5 15 5 6 7 -7 10 -15 7 -18z m-2114 -26 c13 -22 15 -34 7 -42 -14
-14 -61 28 -61 55 0 29 34 21 54 -13z m1705 -55 c2 -2 -15 -4 -38 -4 -54 0
-52 -24 2 -28 20 -2 37 -7 37 -13 0 -5 -17 -7 -40 -3 -38 6 -40 5 -40 -20 0
-15 -3 -25 -7 -23 -7 5 -8 25 -4 87 1 18 6 20 44 14 23 -4 44 -8 46 -10z m128
-21 c7 -18 -6 -31 -15 -16 -4 6 -24 14 -45 18 l-37 7 0 -35 c0 -29 4 -36 25
-41 14 -4 34 -2 45 4 16 9 20 8 20 -5 0 -11 -10 -15 -37 -15 -21 0 -44 4 -51
8 -16 11 -19 81 -4 91 19 11 93 0 99 -16z m-1507 -83 c0 -5 -5 -10 -11 -10 -5
0 -7 5 -4 10 3 6 8 10 11 10 2 0 4 -4 4 -10z m584 -16 c3 -8 2 -12 -4 -9 -6 3
-10 10 -10 16 0 14 7 11 14 -7z m-614 -174 c0 -5 -5 -10 -11 -10 -5 0 -7 5 -4
10 3 6 8 10 11 10 2 0 4 -4 4 -10z m45 -10 c-3 -5 -10 -10 -16 -10 -5 0 -9 5
-9 10 0 6 7 10 16 10 8 0 12 -4 9 -10z m-18 -49 c25 -34 32 -62 17 -68 -14 -5
-54 56 -54 81 0 24 14 20 37 -13z m-3700 -43 c-3 -8 -6 -5 -6 6 -1 11 2 17 5
13 3 -3 4 -12 1 -19z m3143 -78 c24 -15 7 -19 -20 -5 -15 8 -19 14 -10 14 8 1
22 -3 30 -9z m1981 -52 c8 -15 8 -18 0 -14 -6 4 -16 16 -22 28 -8 15 -8 18 0
14 6 -4 16 -16 22 -28z m1099 -73 c13 -14 19 -25 13 -25 -5 0 -20 11 -33 25
-13 14 -19 25 -13 25 5 0 20 -11 33 -25z m-4065 -25 c10 -11 14 -20 8 -20 -5
0 -18 9 -28 20 -10 11 -14 20 -8 20 5 0 18 -9 28 -20z m1775 0 c14 -10 21 -22
17 -27 -10 -9 -59 17 -65 35 -6 18 19 14 48 -8z m266 -72 c8 -16 13 -32 11
-34 -4 -5 -47 61 -47 72 0 13 22 -10 36 -38z m316 -8 c12 -11 19 -22 16 -25
-2 -3 -15 6 -28 20 -28 30 -18 34 12 5z m-2222 -30 c13 -11 21 -23 18 -26 -3
-3 -19 6 -34 20 -16 14 -24 26 -18 26 6 0 21 -9 34 -20z m806 -75 c57 -85 30
-142 -35 -73 -50 54 -67 92 -53 123 10 22 15 24 32 15 11 -6 36 -35 56 -65z
m771 -47 c33 -32 41 -48 23 -48 -13 0 -80 60 -80 71 0 18 25 8 57 -23z m-4507
-9 c0 -6 -11 -38 -24 -72 -14 -34 -28 -80 -31 -102 -10 -63 -15 -75 -31 -75
-19 0 -19 62 1 100 8 16 12 35 9 43 -7 21 43 117 61 117 8 0 15 -5 15 -11z
m4125 -89 c27 -30 12 -34 -15 -5 -13 14 -19 25 -13 25 5 0 18 -9 28 -20z
m-285 -152 c0 -16 -27 -7 -49 16 -34 36 -16 54 20 20 16 -15 29 -31 29 -36z
m-3934 -54 c-4 -9 -9 -15 -11 -12 -3 3 -3 13 1 22 4 9 9 15 11 12 3 -3 3 -13
-1 -22z m4678 -14 c15 -15 26 -34 24 -41 -3 -9 -22 3 -54 35 -40 40 -44 48
-24 41 14 -4 38 -20 54 -35z m203 14 c-9 -9 -28 6 -21 18 4 6 10 6 17 -1 6 -6
8 -13 4 -17z m-4897 -79 c0 -8 -4 -15 -8 -15 -5 0 -9 7 -9 15 0 8 4 15 9 15 4
0 8 -7 8 -15z m3534 -82 c34 -36 47 -73 26 -73 -5 0 0 -16 12 -35 11 -20 18
-38 16 -41 -11 -10 -138 155 -138 180 0 3 11 6 24 6 16 0 38 -14 60 -37z
m1367 5 c11 -21 11 -22 -4 -9 -10 7 -17 17 -17 22 0 15 9 10 21 -13z m-313 -7
c35 -30 27 -46 -10 -22 -18 11 -34 25 -36 30 -6 17 21 12 46 -8z m1397 -291
c3 -5 1 -10 -4 -10 -6 0 -11 5 -11 10 0 6 2 10 4 10 3 0 8 -4 11 -10z m-387
-34 c15 -14 38 -34 52 -45 23 -19 23 -20 5 -20 -11 0 -37 19 -58 44 -42 49
-41 59 1 21z m-2083 -106 c10 -11 14 -20 8 -20 -5 0 -18 9 -28 20 -10 11 -14
20 -8 20 5 0 18 -9 28 -20z m-3530 -70 c9 -27 -3 -60 -21 -60 -9 0 -14 11 -14
33 0 48 23 66 35 27z m5886 -159 c13 -11 22 -22 19 -25 -7 -7 -70 24 -70 35 0
15 27 10 51 -10z m-5959 -132 c-3 -94 -15 -139 -38 -139 -20 0 -22 21 -8 118
15 109 20 125 37 119 9 -3 11 -29 9 -98z m368 11 c0 -11 -7 -20 -15 -20 -17 0
-18 2 -9 24 9 23 24 20 24 -4z m-454 -109 c-4 -37 -14 -73 -23 -83 -15 -17
-17 -17 -29 0 -23 31 14 166 43 155 13 -5 14 -17 9 -72z m267 47 c8 -23 -5
-113 -20 -129 -8 -10 -21 -41 -28 -70 -26 -97 -68 -107 -78 -18 -5 40 -3 57 8
69 8 9 15 24 15 34 0 9 8 29 19 44 10 15 26 39 35 55 17 28 41 36 49 15z
m-310 -275 c0 -114 -7 -157 -26 -150 -7 2 -13 21 -15 41 -2 28 -9 40 -23 43
-13 4 -19 14 -19 34 0 32 19 79 32 79 4 0 16 16 25 35 9 19 19 33 21 30 3 -2
5 -53 5 -112z m4257 -54 c0 -5 -7 -9 -14 -9 -18 0 -61 55 -71 90 -5 20 2 16
39 -24 25 -26 46 -52 46 -57z m872 79 c-12 -12 -35 -1 -27 12 3 5 13 6 21 3
10 -4 12 -9 6 -15z m-1427 -20 c18 -21 23 -34 15 -36 -12 -4 -59 44 -60 61 0
16 20 5 45 -25z m760 -61 c29 -50 31 -67 10 -67 -19 0 -55 57 -55 88 0 34 17
26 45 -21z m-4247 -26 c4 -53 -51 -276 -77 -311 -27 -37 -44 -31 -54 18 -7 34
-5 47 7 61 10 11 15 36 15 72 0 59 5 116 15 145 7 21 65 64 81 60 6 -1 11 -22
13 -45z m-183 -114 c-8 -18 -35 -12 -35 8 0 16 22 26 33 15 4 -3 5 -14 2 -23z
m-17 -145 c2 -14 -2 -22 -12 -22 -19 0 -29 17 -22 36 8 22 30 12 34 -14z
m8093 -132 c19 -10 26 -30 12 -30 -5 0 -19 9 -33 20 -26 21 -12 27 21 10z
m-8019 -121 c-2 -49 -9 -90 -17 -99 -7 -8 -16 -40 -19 -70 -8 -57 -52 -170
-68 -170 -5 0 -11 14 -15 30 -3 17 -10 33 -14 36 -22 13 0 92 38 135 12 14 11
20 -3 45 -12 23 -14 35 -5 57 11 29 31 37 31 11 0 -25 25 -10 28 17 5 50 23
100 35 96 8 -3 11 -29 9 -88z m4495 -371 c24 -23 29 -43 13 -53 -15 -10 -64
41 -57 59 8 21 16 20 44 -6z m-393 -280 c26 -37 19 -57 -9 -25 -14 15 -25 32
-25 38 0 16 18 10 34 -13z m878 -10 c-12 -12 -35 -1 -27 12 3 5 13 6 21 3 10
-4 12 -9 6 -15z m878 -356 c0 -12 -6 -10 -25 8 -13 12 -22 27 -19 32 8 12 44
-21 44 -40z m-1230 13 c17 -18 21 -28 13 -36 -12 -12 -77 37 -67 52 9 16 30
10 54 -16z m1433 -124 c10 -16 13 -32 9 -35 -13 -8 -55 40 -47 53 10 17 20 13
38 -18z"/>
<path d="M4651 8904 c0 -11 3 -14 6 -6 3 7 2 16 -1 19 -3 4 -6 -2 -5 -13z"/>
<path d="M4625 8790 c-3 -5 -1 -10 4 -10 6 0 11 5 11 10 0 6 -2 10 -4 10 -3 0
-8 -4 -11 -10z"/>
<path d="M4557 8783 c-4 -3 -7 -13 -7 -22 1 -13 3 -13 11 2 11 19 8 33 -4 20z"/>
<path d="M4605 8760 c-3 -5 -1 -10 4 -10 6 0 11 5 11 10 0 6 -2 10 -4 10 -3 0
-8 -4 -11 -10z"/>
<path d="M5505 8660 c-3 -5 -1 -10 4 -10 6 0 11 5 11 10 0 6 -2 10 -4 10 -3 0
-8 -4 -11 -10z"/>
<path d="M5408 8633 c10 -4 10 -8 1 -19 -8 -10 -8 -14 -1 -14 6 0 16 9 22 20
9 17 8 20 -12 19 -13 0 -17 -3 -10 -6z"/>
<path d="M5483 8633 c-19 -7 -16 -27 7 -48 23 -21 26 -14 8 15 -11 17 -10 22
2 30 16 10 4 12 -17 3z"/>
<path d="M5340 8613 c0 -6 8 -17 18 -24 16 -13 16 -13 2 6 -8 11 -16 22 -17
24 -2 2 -3 0 -3 -6z"/>
<path d="M5510 8609 c0 -5 5 -7 10 -4 6 3 10 8 10 11 0 2 -4 4 -10 4 -5 0 -10
-5 -10 -11z"/>
<path d="M5470 8560 c0 -5 5 -10 11 -10 5 0 7 5 4 10 -3 6 -8 10 -11 10 -2 0
-4 -4 -4 -10z"/>
<path d="M6218 8833 c7 -3 16 -2 19 1 4 3 -2 6 -13 5 -11 0 -14 -3 -6 -6z"/>
<path d="M535 8571 c-3 -5 -1 -12 5 -16 5 -3 10 1 10 9 0 18 -6 21 -15 7z"/>
<path d="M537 8495 c-4 -8 -2 -17 2 -20 5 -2 11 4 14 15 6 23 -8 27 -16 5z"/>
<path d="M776 7914 c-21 -20 -20 -24 3 -24 20 0 36 26 21 35 -4 3 -16 -2 -24
-11z"/>
<path d="M1308 6743 c5 -21 7 -23 10 -9 2 10 0 22 -6 28 -6 6 -7 0 -4 -19z"/>
<path d="M1010 6905 c0 -19 2 -35 4 -35 2 0 6 16 8 35 2 19 0 35 -4 35 -4 0
-8 -16 -8 -35z"/>
<path d="M1002 6840 c0 -14 2 -19 5 -12 2 6 2 18 0 25 -3 6 -5 1 -5 -13z"/>
<path d="M992 6790 c0 -14 2 -19 5 -12 2 6 2 18 0 25 -3 6 -5 1 -5 -13z"/>
<path d="M1000 6289 c1 -2 9 -27 19 -56 12 -37 21 -49 30 -43 17 10 5 48 -25
79 -13 13 -24 22 -24 20z"/>
<path d="M1071 5764 c0 -11 3 -14 6 -6 3 7 2 16 -1 19 -3 4 -6 -2 -5 -13z"/>
<path d="M1105 5300 c3 -5 8 -10 11 -10 2 0 4 5 4 10 0 6 -5 10 -11 10 -5 0
-7 -4 -4 -10z"/>
<path d="M10165 10790 c4 -6 11 -8 16 -5 14 9 11 15 -7 15 -8 0 -12 -5 -9 -10z"/>
<path d="M10384 10789 c-4 -8 -29 -9 -75 -5 -64 7 -69 6 -69 -12 0 -10 8 -26
18 -34 23 -21 98 -54 142 -63 19 -4 46 -13 60 -21 14 -7 43 -20 65 -29 38 -15
40 -15 57 7 10 13 18 32 18 44 0 12 10 26 23 32 12 6 16 11 10 11 -20 1 -15
26 12 55 l24 26 -139 0 c-91 0 -141 -4 -146 -11z"/>
<path d="M526 10598 c-38 -47 -41 -52 -49 -65 -4 -7 -5 -24 -1 -38 9 -35 54
-36 54 -1 0 14 11 37 25 52 28 30 32 56 11 73 -11 9 -19 5 -40 -21z"/>
<path d="M10790 10597 c0 -23 -55 -68 -116 -96 -28 -12 -36 -35 -24 -67 8 -21
15 -25 33 -21 12 3 43 11 70 18 l47 12 0 84 c0 46 -2 83 -5 83 -3 0 -5 -6 -5
-13z"/>
<path d="M99 10477 c-40 -33 -45 -61 -14 -81 20 -13 25 -24 23 -52 -1 -19 -7
-38 -13 -42 -20 -14 -43 -69 -34 -85 12 -20 -6 -68 -23 -65 -9 2 -12 -7 -10
-26 3 -22 0 -27 -12 -23 -14 6 -16 -7 -16 -88 l0 -93 30 30 c30 30 38 54 20
60 -5 2 -12 17 -16 34 -5 25 -1 37 20 59 14 15 26 36 26 47 0 25 47 68 75 68
39 0 57 31 53 97 -3 54 -2 58 19 57 14 0 23 7 25 21 8 40 -8 62 -50 69 -23 3
-47 13 -56 21 -18 18 -16 19 -47 -8z"/>
<path d="M832 10335 c-7 -14 -12 -32 -12 -40 0 -23 35 -27 73 -9 35 17 36 18
21 46 -20 38 -66 39 -82 3z"/>
<path d="M1228 10275 c-24 -33 -22 -59 6 -86 17 -16 21 -27 15 -35 -23 -28 33
-79 75 -68 14 3 27 12 30 21 4 9 17 13 38 11 30 -3 33 0 36 26 7 55 -5 76 -42
76 -32 0 -66 24 -66 48 0 14 -32 32 -57 32 -10 0 -26 -11 -35 -25z m85 -91
c-4 -10 0 -20 10 -26 22 -12 21 -31 -2 -52 -16 -14 -20 -15 -30 -2 -9 11 -10
20 -1 35 7 14 7 21 0 21 -14 0 -13 27 3 33 22 9 26 7 20 -9z m82 -5 c10 -15 2
-19 -24 -12 -17 4 -19 8 -9 14 18 12 26 11 33 -2z m-20 -29 c3 -5 2 -10 -4
-10 -5 0 -13 5 -16 10 -3 6 -2 10 4 10 5 0 13 -4 16 -10z"/>
<path d="M650 10266 c0 -8 5 -18 10 -21 6 -3 10 -17 10 -31 0 -13 5 -24 10
-24 14 0 13 11 -5 54 -16 38 -25 46 -25 22z"/>
<path d="M9578 10242 c-19 -4 -22 -11 -12 -36 8 -22 31 -20 37 3 6 25 -4 38
-25 33z"/>
<path d="M1 10186 c-1 -34 2 -47 9 -40 7 7 7 24 1 50 l-9 39 -1 -49z"/>
<path d="M301 10193 c-1 -17 4 -35 10 -38 19 -13 23 5 6 38 l-16 32 0 -32z"/>
<path d="M670 10133 c1 -10 7 -31 15 -48 13 -29 13 -29 14 -5 1 34 -9 70 -20
70 -5 0 -9 -8 -9 -17z"/>
<path d="M949 10104 c-12 -14 -11 -16 5 -13 11 2 21 10 24 17 5 17 -13 15 -29
-4z"/>
<path d="M1194 10092 c-22 -14 -25 -48 -5 -66 18 -16 19 -16 25 6 14 53 6 78
-20 60z"/>
<path d="M1383 10053 c-7 -2 -13 -17 -13 -31 l1 -27 19 24 c29 34 26 48 -7 34z"/>
<path d="M778 10018 c-3 -30 -6 -33 -37 -35 -46 -2 -59 -17 -36 -43 10 -11 27
-20 37 -20 10 0 30 -12 43 -26 l25 -26 10 26 c5 15 14 25 19 22 13 -8 42 4 35
15 -3 5 -14 9 -25 9 -12 0 -19 7 -19 20 0 13 7 20 20 20 10 0 24 9 30 20 10
18 8 20 -18 20 -15 0 -37 7 -48 15 -28 21 -32 19 -36 -17z"/>
<path d="M265 9971 c-3 -10 -4 -25 -3 -32 2 -9 -5 -13 -17 -12 -28 3 -75 -17
-75 -32 0 -7 7 -18 15 -25 8 -6 17 -22 21 -33 4 -12 15 -33 26 -46 l19 -25 6
22 c3 13 13 22 25 22 12 0 24 12 34 35 21 51 17 79 -15 114 -27 29 -30 30 -36
12z"/>
<path d="M1368 9974 c-3 -5 -2 -20 2 -34 5 -22 7 -23 13 -7 7 19 -6 56 -15 41z"/>
<path d="M924 9917 c-13 -15 -3 -47 22 -67 16 -14 17 -13 11 19 -4 18 -7 40
-7 47 0 17 -11 17 -26 1z"/>
<path d="M2 9880 c0 -14 2 -19 5 -12 2 6 2 18 0 25 -3 6 -5 1 -5 -13z"/>
<path d="M620 9830 c12 -22 30 -18 30 6 0 8 -9 14 -20 14 -18 0 -19 -3 -10
-20z"/>
<path d="M830 9826 c0 -8 5 -18 10 -21 6 -3 10 1 10 9 0 8 -4 18 -10 21 -5 3
-10 -1 -10 -9z"/>
<path d="M895 9790 c-3 -5 -1 -10 4 -10 6 0 11 5 11 10 0 6 -2 10 -4 10 -3 0
-8 -4 -11 -10z"/>
<path d="M560 9767 c0 -27 -15 -47 -52 -70 -25 -16 -36 -45 -23 -59 15 -14 59
7 69 33 17 45 74 34 90 -19 9 -26 32 -29 44 -4 13 24 22 102 12 102 -4 0 -10
-7 -14 -15 -9 -24 -23 -18 -50 21 -15 22 -26 31 -29 22 -4 -10 -7 -11 -18 0
-20 18 -29 15 -29 -11z"/>
<path d="M970 9768 c0 -9 5 -20 10 -23 13 -8 13 5 0 25 -8 13 -10 13 -10 -2z"/>
<path d="M10295 9702 c-27 -15 -51 -30 -53 -34 -2 -5 -19 -8 -38 -8 -37 0
-111 -26 -132 -47 -9 -9 -12 -25 -7 -52 5 -28 2 -42 -10 -54 -20 -20 -72 -12
-98 14 -21 22 -58 23 -142 5 -78 -16 -103 -31 -111 -63 -8 -31 1 -229 18 -370
9 -83 9 -110 -2 -145 -8 -24 -15 -63 -16 -88 -1 -25 -7 -72 -12 -105 -21 -114
5 -207 39 -143 19 35 33 46 72 53 98 19 155 -107 83 -184 -30 -32 -40 -64 -37
-117 3 -46 -11 -108 -36 -166 -17 -41 -56 -63 -94 -53 -18 4 -30 0 -42 -13
-16 -17 -19 -49 -24 -233 -8 -307 -8 -568 1 -611 4 -21 13 -38 20 -38 7 0 23
25 36 55 13 30 26 55 30 55 13 0 27 45 19 65 -17 45 -9 109 21 162 43 76 79
97 160 97 l67 -1 13 36 c22 64 38 81 74 81 20 0 40 -8 51 -20 10 -11 24 -20
31 -20 7 0 15 -8 18 -18 9 -26 83 -94 91 -82 3 5 3 15 0 20 -3 6 -1 10 4 10 6
0 11 7 11 15 0 8 5 15 10 15 6 0 10 7 10 15 0 8 4 15 9 15 5 0 12 12 15 26 9
32 66 59 161 73 39 6 90 15 115 20 25 6 57 10 71 11 28 0 89 -45 89 -66 0 -16
-60 -64 -90 -71 -37 -9 -89 -45 -150 -102 -29 -28 -57 -51 -62 -51 -11 0 3
-33 20 -46 12 -9 14 -27 9 -88 -5 -69 -3 -78 16 -96 11 -11 23 -20 26 -21 3 0
60 -6 126 -13 66 -7 121 -12 123 -11 1 1 1 389 0 863 l-3 862 -65 -40 c-36
-22 -73 -40 -83 -40 -9 0 -36 -9 -60 -19 -23 -10 -62 -26 -87 -36 -52 -19 -80
-42 -80 -63 0 -16 49 -62 66 -62 6 0 21 -11 34 -25 19 -20 22 -32 17 -65 -6
-47 -24 -65 -81 -81 -38 -10 -86 -51 -86 -73 0 -6 9 -25 19 -42 21 -35 67 -50
91 -30 28 23 65 34 107 31 24 -2 46 -6 51 -9 5 -3 12 -29 14 -58 4 -42 11 -57
36 -79 64 -57 68 -99 14 -152 -21 -20 -46 -37 -55 -37 -20 0 -73 -25 -97 -45
-8 -7 -35 -24 -60 -38 -37 -20 -55 -24 -96 -20 -47 5 -51 3 -75 -27 -24 -33
-46 -56 -71 -76 -8 -6 -47 -10 -91 -8 -61 2 -77 -1 -77 -12 0 -12 -8 -13 -37
-8 -42 7 -56 14 -30 14 10 0 17 5 17 10 0 6 -9 10 -20 10 -23 0 -26 13 -7 32
7 7 16 21 20 31 3 9 16 17 27 17 11 0 24 8 27 18 4 9 10 19 15 22 4 3 10 54
14 112 l7 106 -37 47 c-41 54 -44 83 -22 167 22 81 43 135 75 192 28 50 35 77
46 181 12 117 67 204 175 278 59 40 61 44 59 97 -3 50 14 99 33 102 26 3 34 5
61 18 23 11 36 11 79 0 29 -7 61 -21 71 -31 11 -10 40 -22 66 -28 25 -5 54
-13 64 -16 16 -7 17 3 17 114 0 136 1 134 -80 111 -19 -5 -78 -10 -130 -11
-155 -2 -187 23 -185 144 l1 67 -30 -1 c-17 0 -53 -12 -81 -27z"/>
<path d="M1240 9676 c0 -8 -10 -16 -22 -18 -20 -3 -23 -8 -21 -47 1 -24 7 -49
13 -55 5 -5 10 -21 10 -35 0 -23 1 -23 18 -8 10 10 25 17 34 17 10 0 14 10 14
35 -1 19 -4 35 -8 35 -3 0 -9 18 -13 40 -7 39 -25 66 -25 36z m5 -46 c-3 -5
-10 -10 -16 -10 -5 0 -9 5 -9 10 0 6 7 10 16 10 8 0 12 -4 9 -10z"/>
<path d="M1316 9655 c-4 -12 -1 -16 11 -13 18 3 21 20 5 26 -5 1 -12 -4 -16
-13z"/>
<path d="M1060 9641 c0 -5 5 -13 10 -16 6 -3 10 -2 10 4 0 5 -4 13 -10 16 -5
3 -10 2 -10 -4z"/>
<path d="M617 9603 c-13 -13 -7 -32 8 -27 8 4 15 12 15 20 0 15 -12 19 -23 7z"/>
<path d="M250 9582 c0 -10 -5 -23 -11 -29 -8 -8 -6 -23 4 -54 14 -40 15 -41
26 -21 13 24 5 122 -10 122 -5 0 -9 -8 -9 -18z"/>
<path d="M555 9560 c-4 -6 -3 -16 3 -22 13 -13 23 4 13 21 -7 10 -10 10 -16 1z"/>
<path d="M785 9540 c-8 -13 5 -13 25 0 13 8 13 10 -2 10 -9 0 -20 -4 -23 -10z"/>
<path d="M1653 9538 c-6 -7 -13 -23 -16 -35 -4 -19 -1 -23 18 -23 24 0 39 29
28 56 -6 17 -18 18 -30 2z"/>
<path d="M200 9529 c0 -5 5 -7 10 -4 6 3 10 8 10 11 0 2 -4 4 -10 4 -5 0 -10
-5 -10 -11z"/>
<path d="M978 9503 c11 -16 23 -38 26 -50 4 -13 13 -23 20 -23 6 0 23 -21 37
-47 13 -25 28 -54 33 -63 5 -10 19 -23 30 -30 20 -13 20 -12 3 11 -9 13 -23
38 -30 54 -8 17 -26 44 -40 61 -15 18 -27 36 -27 41 0 10 -56 73 -65 73 -4 0
2 -12 13 -27z"/>
<path d="M2376 9510 c-33 -10 -84 -55 -96 -85 -6 -14 -2 -26 12 -42 11 -12 23
-36 27 -54 11 -55 28 -45 35 21 4 33 11 60 16 60 6 0 10 -7 10 -16 0 -8 18
-33 40 -55 34 -34 43 -38 60 -29 21 11 27 30 10 30 -5 0 -10 5 -10 12 0 6 -7
20 -16 29 -18 20 -24 93 -10 122 7 14 3 17 -20 16 -16 0 -42 -5 -58 -9z"/>
<path d="M1431 9494 c0 -11 3 -14 6 -6 3 7 2 16 -1 19 -3 4 -6 -2 -5 -13z"/>
<path d="M655 9478 c-4 -14 -5 -35 -3 -45 4 -16 5 -16 16 4 8 14 9 30 3 45
l-9 23 -7 -27z"/>
<path d="M866 9492 c-2 -4 -7 -21 -10 -38 -4 -18 -16 -40 -27 -50 -19 -17 -27
-64 -10 -64 4 0 20 27 34 60 15 33 31 60 37 60 15 0 12 27 -5 33 -8 4 -16 3
-19 -1z"/>
<path d="M182 9416 c2 -15 8 -26 13 -26 15 0 12 43 -3 48 -10 3 -13 -4 -10
-22z"/>
<path d="M746 9375 c-3 -8 -1 -15 4 -15 6 0 10 7 10 15 0 8 -2 15 -4 15 -2 0
-6 -7 -10 -15z"/>
<path d="M175 9348 c-14 -31 -42 -34 -65 -6 l-19 23 6 -22 c3 -12 11 -28 19
-34 8 -6 14 -17 14 -24 0 -7 7 -15 15 -19 8 -3 20 -17 27 -31 11 -24 41 -34
52 -16 3 5 -8 22 -24 38 -28 27 -29 32 -19 61 13 38 8 62 -6 30z"/>
<path d="M310 9316 c0 -2 7 -22 15 -45 8 -22 11 -41 8 -41 -3 0 6 -11 21 -25
31 -29 34 -55 6 -62 -11 -3 -20 -8 -20 -11 0 -2 18 -24 40 -48 46 -50 48 -50
19 6 -19 37 -20 42 -6 58 18 20 12 71 -9 79 -8 3 -14 9 -14 13 0 13 -44 79
-52 80 -5 0 -8 -2 -8 -4z"/>
<path d="M236 9221 c-3 -4 0 -22 7 -40 9 -24 17 -31 39 -31 35 0 35 7 -3 48
-33 35 -35 36 -43 23z"/>
<path d="M0 9169 c0 -49 0 -50 21 -35 14 10 22 27 24 50 2 32 -1 36 -22 36
-21 0 -23 -4 -23 -51z"/>
<path d="M1480 9195 c-8 -9 -8 -15 -2 -15 12 0 26 19 19 26 -2 2 -10 -2 -17
-11z"/>
<path d="M1446 9144 c-5 -14 -4 -15 9 -4 17 14 19 20 6 20 -5 0 -12 -7 -15
-16z"/>
<path d="M1022 9110 c-12 -10 -25 -33 -29 -52 -3 -18 -12 -45 -19 -60 -8 -15
-10 -29 -5 -32 5 -3 11 4 14 16 5 18 8 19 21 8 11 -9 20 -9 29 -2 6 6 27 12
46 14 l34 3 -27 32 c-22 26 -26 39 -21 63 8 36 -8 39 -43 10z"/>
<path d="M747 9024 c-15 -53 -17 -74 -7 -74 5 0 10 10 10 23 0 13 4 27 10 33
5 5 6 15 1 23 -7 11 -10 10 -14 -5z"/>
<path d="M2090 8986 c0 -36 17 -41 18 -6 0 17 -4 30 -9 30 -5 0 -9 -11 -9 -24z"/>
<path d="M159 8962 c-3 -20 -2 -29 4 -23 5 5 7 19 5 32 -3 20 -5 19 -9 -9z"/>
<path d="M2575 8980 c3 -5 11 -10 16 -10 6 0 7 5 4 10 -3 6 -11 10 -16 10 -6
0 -7 -4 -4 -10z"/>
<path d="M287 8966 c-9 -7 -30 -33 -46 -56 -24 -36 -27 -47 -18 -62 18 -28 27
-21 57 42 5 10 18 14 39 12 30 -3 31 -2 31 37 0 36 -3 41 -22 41 -13 0 -31 -7
-41 -14z"/>
<path d="M2626 8972 c-2 -4 -1 -14 5 -22 7 -12 9 -10 9 8 0 23 -5 28 -14 14z"/>
<path d="M170 8872 c0 -7 -7 -12 -15 -12 -19 0 -19 -9 0 -34 14 -18 15 -18 25
9 7 20 8 31 0 39 -7 7 -10 6 -10 -2z"/>
<path d="M2037 8873 c-4 -3 -7 -11 -7 -17 0 -6 5 -5 12 2 6 6 9 14 7 17 -3 3
-9 2 -12 -2z"/>
<path d="M2111 8844 c0 -11 3 -14 6 -6 3 7 2 16 -1 19 -3 4 -6 -2 -5 -13z"/>
<path d="M1543 8815 c-3 -9 -3 -18 -1 -21 3 -3 8 4 11 16 6 23 -1 27 -10 5z"/>
<path d="M151 8768 c-22 -27 -22 -30 -6 -47 12 -14 15 -28 9 -56 -5 -27 -4
-36 5 -31 6 4 11 13 11 20 0 8 7 19 15 26 13 11 20 8 45 -21 32 -38 38 -33 15
11 -9 17 -21 30 -29 30 -7 0 -19 22 -27 49 l-14 48 -24 -29z"/>
<path d="M265 8770 c-4 -6 -2 -17 4 -23 15 -15 25 -2 13 19 -7 12 -11 13 -17
4z"/>
<path d="M830 8765 c0 -8 7 -15 15 -15 8 0 15 7 15 15 0 8 -7 15 -15 15 -8 0
-15 -7 -15 -15z"/>
<path d="M340 8711 c0 -5 3 -17 6 -26 5 -13 8 -14 15 -3 13 20 11 38 -6 38 -8
0 -15 -4 -15 -9z"/>
<path d="M34 8698 c-4 -6 1 -17 12 -25 20 -15 30 -4 20 22 -6 18 -22 19 -32 3z"/>
<path d="M1005 8700 c3 -5 10 -10 16 -10 5 0 9 5 9 10 0 6 -7 10 -16 10 -8 0
-12 -4 -9 -10z"/>
<path d="M1135 8660 c-3 -5 -1 -10 4 -10 6 0 11 5 11 10 0 6 -2 10 -4 10 -3 0
-8 -4 -11 -10z"/>
<path d="M1170 8630 c0 -5 5 -10 10 -10 6 0 10 5 10 10 0 6 -4 10 -10 10 -5 0
-10 -4 -10 -10z"/>
<path d="M150 8601 c0 -11 -4 -23 -10 -26 -5 -3 -10 -23 -10 -44 0 -21 -7 -45
-18 -57 -16 -18 -19 -64 -3 -64 12 0 38 33 46 58 5 17 12 21 26 17 14 -5 19
-2 19 13 0 11 -7 25 -15 32 -9 7 -15 29 -15 51 0 22 -4 39 -10 39 -5 0 -10 -9
-10 -19z"/>
<path d="M1142 8557 c-29 -31 -28 -37 8 -27 45 13 53 20 39 36 -16 19 -22 18
-47 -9z"/>
<path d="M9698 8541 c-26 -26 -25 -98 2 -106 11 -3 24 -3 30 0 14 9 12 57 -5
78 -7 11 -11 25 -8 33 7 18 2 17 -19 -5z"/>
<path d="M23 8493 c-28 -5 -29 -15 -5 -36 23 -21 36 -21 52 -2 10 12 10 18 0
30 -7 8 -15 14 -19 14 -3 -1 -16 -4 -28 -6z"/>
<path d="M2 8403 c2 -31 7 -39 26 -41 26 -4 28 -14 6 -47 -12 -19 -15 -38 -10
-78 5 -37 2 -63 -9 -89 -11 -28 -15 -71 -14 -165 0 -81 4 -121 9 -108 5 11 9
33 9 48 1 15 8 42 17 59 15 28 15 34 1 57 -14 23 -14 34 -1 91 8 36 21 79 29
95 7 17 13 47 12 67 -1 26 5 42 18 51 18 14 14 37 -8 37 -7 0 -24 14 -39 30
-36 41 -50 39 -46 -7z"/>
<path d="M218 8004 c-3 -5 -20 -55 -37 -111 -34 -108 -37 -146 -9 -151 13 -3
15 4 13 34 -5 49 18 104 43 104 15 0 19 8 20 35 1 36 -22 104 -30 89z"/>
<path d="M1645 7860 c-3 -5 -2 -10 4 -10 5 0 13 5 16 10 3 6 2 10 -4 10 -5 0
-13 -4 -16 -10z"/>
<path d="M240 7764 c0 -2 5 -13 12 -23 17 -28 5 -45 -55 -74 -65 -32 -63 -32
-70 -6 -3 12 -10 18 -16 14 -8 -4 -8 -12 -1 -26 11 -20 12 -20 -58 -108 -27
-35 -27 -37 -2 -44 26 -7 26 -39 0 -62 -29 -26 -24 -86 7 -100 13 -5 23 -13
23 -17 0 -5 5 -8 10 -8 6 0 10 7 10 15 0 9 18 33 40 55 21 21 42 51 46 67 4
15 17 38 28 49 48 49 64 74 59 94 -3 11 -11 20 -18 20 -16 0 -38 -27 -40 -49
-2 -20 -51 -71 -70 -71 -14 0 -20 13 -30 71 -7 37 6 56 35 54 8 0 23 10 33 22
15 18 25 22 50 17 18 -3 35 -12 40 -20 6 -11 13 -12 28 -4 16 9 21 7 27 -10 5
-13 8 3 10 49 1 45 -2 72 -11 78 -13 11 -87 25 -87 17z"/>
<path d="M180 7332 c0 -30 26 -86 47 -98 17 -10 18 -7 15 47 -3 41 -8 59 -17
59 -7 0 -20 3 -29 6 -11 4 -16 0 -16 -14z"/>
<path d="M1 7170 l0 -75 15 50 c27 98 28 101 5 101 -19 0 -21 -6 -20 -76z"/>
<path d="M360 7230 c-7 -5 -12 -28 -12 -61 0 -30 -4 -58 -8 -64 -4 -5 -10 -28
-12 -50 -3 -22 -8 -48 -12 -57 -6 -13 -4 -18 8 -18 11 0 16 9 16 29 0 16 5 42
11 58 28 71 46 162 34 167 -6 2 -18 1 -25 -4z"/>
<path d="M10756 7145 c-28 -21 -137 -55 -210 -66 -78 -11 -211 -54 -248 -81
-25 -17 -27 -24 -24 -68 3 -27 8 -55 12 -61 5 -8 33 -9 98 -3 131 11 137 10
168 -27 21 -25 28 -44 28 -77 0 -36 5 -48 30 -70 25 -22 30 -34 30 -70 0 -65
-21 -94 -100 -141 -80 -48 -140 -71 -182 -71 -67 0 -86 -37 -45 -85 27 -32
141 -62 262 -70 44 -2 113 -7 153 -11 l72 -6 0 461 c0 486 1 480 -44 446z"/>
<path d="M4406 7134 c-3 -9 -6 -28 -5 -42 l0 -27 10 23 c5 13 18 26 29 29 19
5 20 6 3 19 -23 18 -30 17 -37 -2z"/>
<path d="M9626 7012 c-4 -7 -7 -57 -6 -110 7 -287 3 -427 -14 -470 -13 -35
-15 -62 -10 -138 8 -110 19 -124 79 -103 34 13 35 15 35 64 0 27 -4 66 -10 85
-7 23 -6 53 1 95 10 53 9 65 -7 95 -20 40 -30 107 -47 335 -7 96 -15 155 -21
147z"/>
<path d="M270 6938 c-1 -20 -12 -48 -30 -73 -66 -90 -83 -116 -77 -121 3 -3
24 20 47 50 23 31 49 56 56 56 31 0 45 108 17 118 -9 2 -13 -8 -13 -30z"/>
<path d="M325 6920 c-3 -5 1 -10 9 -10 9 0 16 5 16 10 0 6 -4 10 -9 10 -6 0
-13 -4 -16 -10z"/>
<path d="M329 6817 c-32 -27 -44 -57 -24 -57 8 0 19 -8 24 -17 8 -14 11 -15
12 -3 1 25 7 54 14 78 9 27 7 27 -26 -1z"/>
<path d="M45 6800 c-4 -6 5 -10 19 -10 14 0 26 5 26 10 0 6 -9 10 -19 10 -11
0 -23 -4 -26 -10z"/>
<path d="M245 6740 c-17 -18 -17 -20 -1 -20 9 0 19 7 23 15 9 25 -2 27 -22 5z"/>
<path d="M143 6710 c-7 -10 -31 -24 -53 -31 -25 -8 -42 -20 -46 -33 -3 -12
-15 -31 -26 -42 -11 -13 -18 -32 -16 -46 l3 -24 54 28 c47 25 52 30 33 35 -12
3 -22 9 -22 14 0 15 44 50 100 80 30 17 47 28 38 25 -10 -3 -20 -1 -23 4 -10
16 -29 11 -42 -10z"/>
<path d="M325 6679 c-10 -15 1 -23 20 -15 9 3 13 10 10 16 -8 13 -22 13 -30
-1z"/>
<path d="M260 6656 c0 -9 7 -12 20 -9 11 3 17 9 14 14 -8 14 -34 10 -34 -5z"/>
<path d="M165 6610 c-8 -13 5 -13 25 0 13 8 13 10 -2 10 -9 0 -20 -4 -23 -10z"/>
<path d="M340 6585 c0 -11 -3 -31 -7 -44 -4 -16 -2 -22 4 -18 16 10 25 59 14
70 -8 8 -11 5 -11 -8z"/>
<path d="M682 6496 c2 -16 9 -31 16 -34 17 -5 15 20 -3 44 -15 18 -15 18 -13
-10z"/>
<path d="M302 6451 c-23 -48 -31 -135 -12 -146 6 -3 10 3 10 15 0 11 7 55 16
96 8 42 14 77 12 79 -2 1 -13 -18 -26 -44z"/>
<path d="M704 6316 c-3 -8 -4 -27 -2 -43 3 -23 5 -20 9 15 5 43 2 53 -7 28z"/>
<path d="M1726 6284 c-8 -21 -8 -21 14 -27 23 -6 33 5 24 27 -8 21 -30 21 -38
0z"/>
<path d="M193 6278 c5 -16 -20 -68 -33 -68 -6 0 -10 -5 -10 -10 0 -16 37 7 55
34 9 13 13 31 9 40 -7 19 -28 22 -21 4z"/>
<path d="M276 6243 c-3 -21 -6 -75 -6 -120 0 -100 -17 -218 -36 -256 -8 -16
-12 -33 -9 -37 3 -5 -1 -65 -10 -134 -18 -146 -18 -166 -5 -166 6 0 10 10 10
23 1 12 7 33 15 47 9 18 10 29 3 38 -13 16 2 138 38 300 14 62 22 117 18 124
-4 6 -6 58 -5 115 2 107 -2 130 -13 66z"/>
<path d="M688 6204 c-9 -8 3 -44 13 -38 11 7 12 44 1 44 -5 0 -11 -3 -14 -6z"/>
<path d="M1639 6208 c-7 -37 6 -88 22 -88 5 0 24 10 42 22 18 13 34 24 36 25
14 9 -10 12 -29 5 -19 -7 -28 -4 -47 17 -12 14 -23 23 -24 19z"/>
<path d="M20 6041 c0 -6 5 -13 10 -16 6 -3 10 1 10 9 0 9 -4 16 -10 16 -5 0
-10 -4 -10 -9z"/>
<path d="M718 5971 c-27 -26 -38 -61 -18 -61 5 0 19 14 32 30 12 17 28 30 35
30 7 0 13 7 13 15 0 23 -32 16 -62 -14z"/>
<path d="M1530 5960 c0 -5 5 -10 10 -10 6 0 10 5 10 10 0 6 -4 10 -10 10 -5 0
-10 -4 -10 -10z"/>
<path d="M1780 5924 c0 -9 7 -14 17 -12 25 5 28 28 4 28 -12 0 -21 -6 -21 -16z"/>
<path d="M695 5860 c-6 -10 44 -89 56 -90 4 0 9 17 12 38 3 26 0 41 -11 50
-19 15 -48 16 -57 2z"/>
<path d="M1654 5804 c-8 -30 5 -47 25 -35 9 6 11 18 7 35 -8 33 -24 33 -32 0z"/>
<path d="M689 5804 c-3 -5 -2 -26 1 -48 l5 -38 11 30 c9 24 9 35 -1 48 -6 9
-14 13 -16 8z"/>
<path d="M471 5684 c0 -11 3 -14 6 -6 3 7 2 16 -1 19 -3 4 -6 -2 -5 -13z"/>
<path d="M666 5625 c-3 -8 -1 -15 3 -15 5 0 11 7 15 15 3 8 1 15 -3 15 -5 0
-11 -7 -15 -15z"/>
<path d="M2 5570 c0 -14 2 -19 5 -12 2 6 2 18 0 25 -3 6 -5 1 -5 -13z"/>
<path d="M660 5403 c1 -27 1 -27 15 -9 14 19 12 36 -6 36 -5 0 -9 -12 -9 -27z"/>
<path d="M177 5413 c-12 -22 -66 -278 -72 -343 -8 -87 -46 -205 -75 -232 -11
-11 -20 -31 -20 -46 0 -15 -3 -51 -6 -81 -4 -38 -3 -51 5 -47 6 4 11 17 11 30
0 39 31 119 61 157 18 23 26 44 23 57 -3 11 0 31 7 43 7 13 14 46 15 73 2 52
20 76 56 76 10 0 18 7 18 15 0 13 -4 14 -20 5 -33 -18 -42 -3 -35 54 8 57 20
78 44 75 9 -1 24 1 33 5 10 5 26 1 41 -9 23 -15 25 -14 30 2 2 10 8 26 12 36
5 13 2 17 -14 17 -12 0 -21 6 -21 15 0 8 -4 15 -10 15 -5 0 -10 -4 -10 -10 0
-5 -13 -16 -29 -25 -39 -20 -45 -9 -37 66 6 54 4 71 -7 52z"/>
<path d="M651 5340 c0 -14 4 -34 9 -45 8 -18 9 -18 9 5 0 14 -4 34 -9 45 -8
18 -9 18 -9 -5z"/>
<path d="M863 5323 c-15 -6 -17 -59 -3 -68 10 -6 30 34 30 61 0 14 -6 16 -27
7z"/>
<path d="M342 5233 c-7 -12 -12 -32 -11 -45 1 -20 3 -18 15 11 17 38 13 67 -4
34z"/>
<path d="M216 5183 c-13 -13 -6 -42 9 -37 16 7 20 30 6 38 -4 3 -11 3 -15 -1z"/>
<path d="M851 5148 c-5 -18 -15 -64 -21 -103 -7 -38 -18 -88 -25 -110 -8 -22
-13 -54 -13 -71 2 -48 -25 -127 -44 -132 -20 -5 -25 -51 -7 -69 12 -12 14 -86
6 -170 -3 -29 -1 -53 3 -53 11 0 41 60 35 70 -3 5 -7 35 -10 68 -3 45 -1 61
10 65 7 3 11 14 9 24 -5 19 26 176 44 228 6 17 21 75 33 130 32 146 32 151 24
143 -5 -4 -14 -3 -21 3 -9 7 -15 2 -23 -23z"/>
<path d="M462 5154 c-12 -8 -22 -20 -22 -26 0 -6 9 -3 20 7 11 10 20 13 20 7
0 -20 17 -13 23 8 6 24 -10 26 -41 4z"/>
<path d="M656 5086 c-14 -22 -14 -28 -1 -61 16 -36 16 -151 0 -187 -3 -9 -2
-25 4 -35 9 -16 10 -16 11 5 0 13 8 37 17 52 15 25 15 34 3 69 -8 25 -11 64
-8 106 6 72 -2 87 -26 51z"/>
<path d="M2261 5084 c0 -11 3 -14 6 -6 3 7 2 16 -1 19 -3 4 -6 -2 -5 -13z"/>
<path d="M460 5069 c0 -5 5 -7 10 -4 6 3 10 8 10 11 0 2 -4 4 -10 4 -5 0 -10
-5 -10 -11z"/>
<path d="M1605 5065 c-3 -8 -7 -22 -10 -30 -2 -8 1 -15 8 -15 19 0 37 21 37
42 0 22 -29 24 -35 3z"/>
<path d="M1571 4996 c-11 -13 -11 -20 -3 -28 15 -15 24 -5 20 23 -3 21 -4 21
-17 5z"/>
<path d="M398 4974 c-5 -4 -8 -16 -8 -28 0 -14 3 -17 11 -9 6 6 9 19 7 28 -1
9 -6 13 -10 9z"/>
<path d="M1514 4700 c-11 -11 -6 -100 6 -100 10 0 20 93 11 103 -4 4 -11 3
-17 -3z"/>
<path d="M650 4573 c1 -88 4 -123 10 -111 6 9 10 58 11 110 1 125 1 128 -11
128 -6 0 -10 -49 -10 -127z"/>
<path d="M1954 4645 c-21 -10 -33 -23 -37 -42 -3 -16 -18 -41 -33 -56 -15 -16
-33 -38 -39 -50 -6 -12 -24 -29 -41 -37 -17 -8 -47 -28 -67 -44 -33 -25 -41
-27 -63 -17 -14 6 -27 11 -29 11 -6 0 -44 -123 -50 -165 l-6 -40 30 47 c17 27
31 52 31 57 0 13 74 78 112 97 31 16 128 111 128 126 0 4 32 30 70 59 39 28
70 56 70 60 0 13 -40 9 -76 -6z"/>
<path d="M1464 4483 c-4 -16 -10 -32 -14 -38 -10 -13 -23 -75 -17 -75 6 0 77
125 77 134 0 3 -9 6 -20 6 -13 0 -22 -9 -26 -27z"/>
<path d="M1 4434 c0 -11 3 -14 6 -6 3 7 2 16 -1 19 -3 4 -6 -2 -5 -13z"/>
<path d="M910 4415 c0 -8 5 -15 10 -15 6 0 10 7 10 15 0 8 -4 15 -10 15 -5 0
-10 -7 -10 -15z"/>
<path d="M955 4400 c-3 -5 -1 -10 4 -10 6 0 11 5 11 10 0 6 -2 10 -4 10 -3 0
-8 -4 -11 -10z"/>
<path d="M1 4334 c0 -11 3 -14 6 -6 3 7 2 16 -1 19 -3 4 -6 -2 -5 -13z"/>
<path d="M2210 4330 c-7 -13 -7 -20 -1 -20 6 0 15 9 21 20 7 13 7 20 1 20 -6
0 -15 -9 -21 -20z"/>
<path d="M2134 4211 c-19 -22 -33 -51 -37 -76 -3 -22 -8 -49 -12 -60 -4 -11
14 22 39 74 26 52 45 95 44 96 -2 1 -17 -15 -34 -34z"/>
<path d="M1554 4178 c-12 -12 -25 -39 -29 -58 -7 -32 -6 -33 9 -21 23 19 48
69 44 88 -2 11 -8 10 -24 -9z"/>
<path d="M40 4138 c1 -7 7 -24 15 -38 l15 -25 -2 34 c-3 32 -28 59 -28 29z"/>
<path d="M1488 4035 c-10 -13 -18 -36 -18 -51 0 -27 1 -26 20 11 24 47 22 73
-2 40z"/>
<path d="M2062 4028 c-14 -14 -16 -28 -3 -28 5 0 11 9 14 20 6 23 5 24 -11 8z"/>
<path d="M80 4011 c0 -12 5 -21 10 -21 6 0 10 -9 10 -20 0 -11 7 -23 16 -27 8
-3 20 -16 25 -29 4 -13 13 -24 18 -24 14 0 -32 99 -46 100 -7 0 -13 6 -13 14
0 8 -4 18 -10 21 -5 3 -10 -3 -10 -14z"/>
<path d="M1438 3896 c-19 -14 -24 -41 -9 -50 13 -9 33 20 29 43 -3 17 -5 18
-20 7z"/>
<path d="M331 3806 c-9 -10 -8 -16 4 -26 21 -18 45 -6 38 19 -6 24 -25 27 -42
7z"/>
<path d="M1397 3798 c-19 -29 -69 -179 -63 -186 6 -6 53 97 72 157 16 51 12
63 -9 29z"/>
<path d="M110 3795 c0 -8 5 -15 10 -15 6 0 10 7 10 15 0 8 -4 15 -10 15 -5 0
-10 -7 -10 -15z"/>
<path d="M705 3759 c-4 -6 -5 -12 -2 -15 2 -3 7 2 10 11 7 17 1 20 -8 4z"/>
<path d="M0 3674 c0 -47 4 -73 10 -69 13 8 13 145 0 145 -6 0 -10 -32 -10 -76z"/>
<path d="M1903 3728 c-6 -7 -13 -29 -15 -48 -8 -55 -48 -193 -64 -217 -8 -12
-14 -28 -14 -35 -1 -17 -31 -53 -50 -60 -9 -3 -19 -32 -26 -82 -7 -43 -19 -85
-27 -94 -20 -24 -30 -55 -15 -50 13 5 12 2 72 131 26 54 57 108 70 120 18 17
33 58 62 174 27 107 35 156 28 163 -8 8 -14 7 -21 -2z"/>
<path d="M681 3704 c0 -11 3 -14 6 -6 3 7 2 16 -1 19 -3 4 -6 -2 -5 -13z"/>
<path d="M684 3619 c-8 -13 25 -24 37 -12 7 7 3 12 -10 16 -12 3 -24 1 -27 -4z"/>
<path d="M727 3488 c-31 -95 -34 -124 -12 -94 8 11 15 28 15 38 0 10 6 18 14
18 8 0 16 15 19 38 3 20 7 46 9 56 1 10 -2 21 -8 23 -6 2 -22 -34 -37 -79z"/>
<path d="M1277 3478 c-14 -45 -14 -50 -1 -36 16 16 37 88 25 88 -4 0 -15 -23
-24 -52z"/>
<path d="M90 3473 c0 -5 5 -15 10 -23 8 -12 10 -11 10 8 0 12 -4 22 -10 22 -5
0 -10 -3 -10 -7z"/>
<path d="M270 3411 c0 -6 5 -13 10 -16 6 -3 10 1 10 9 0 9 -4 16 -10 16 -5 0
-10 -4 -10 -9z"/>
<path d="M1222 3353 c-18 -38 -32 -75 -32 -81 0 -6 -11 -36 -25 -66 -14 -30
-25 -60 -25 -65 0 -6 -13 -48 -29 -94 -43 -124 -44 -125 -20 -82 12 22 35 76
52 120 16 44 40 109 53 145 50 131 64 174 61 183 -1 5 -17 -22 -35 -60z"/>
<path d="M100 3395 c0 -9 5 -15 11 -13 6 2 11 8 11 13 0 5 -5 11 -11 13 -6 2
-11 -4 -11 -13z"/>
<path d="M63 3313 c-7 -2 -13 -11 -13 -19 0 -8 -11 -32 -25 -53 -23 -35 -26
-46 -23 -122 l3 -84 21 46 c12 26 25 66 29 90 4 24 11 51 15 59 12 24 22 90
13 89 -4 0 -14 -3 -20 -6z"/>
<path d="M197 3113 c-10 -10 -8 -43 2 -43 9 0 21 24 21 41 0 11 -14 12 -23 2z"/>
<path d="M490 2999 c0 -5 5 -7 10 -4 6 3 10 8 10 11 0 2 -4 4 -10 4 -5 0 -10
-5 -10 -11z"/>
<path d="M2088 2797 c-14 -11 -52 -117 -44 -124 2 -2 18 26 36 62 34 66 36 85
8 62z"/>
<path d="M1608 2690 c-25 -21 -51 -54 -58 -72 -13 -32 -57 -85 -64 -77 -2 2
-10 17 -18 33 l-16 30 -26 -57 c-14 -32 -26 -61 -26 -66 0 -5 -9 -20 -20 -34
-14 -17 -26 -23 -40 -20 -22 6 -25 33 -11 95 6 26 5 40 -3 47 -6 5 -46 9 -89
9 -84 0 -102 -9 -114 -56 -9 -40 -33 -72 -53 -72 -14 0 -19 -14 -27 -78 -12
-95 -33 -132 -74 -132 -16 0 -30 -6 -31 -12 0 -7 -2 -26 -3 -41 -1 -15 -8 -39
-15 -53 -13 -23 -12 -27 14 -48 39 -31 32 -61 -13 -61 -44 0 -52 -21 -55 -150
-3 -101 -20 -159 -52 -178 -9 -5 -14 -25 -14 -51 0 -24 -7 -65 -15 -92 -8 -27
-15 -50 -15 -51 0 -1 15 -9 34 -18 18 -9 42 -24 52 -33 11 -9 26 -17 34 -18 8
0 34 -4 58 -8 27 -4 41 -3 37 3 -8 14 15 98 31 112 8 6 14 26 14 44 0 18 9 42
20 55 11 13 20 32 21 44 3 63 8 87 28 130 11 27 21 57 21 67 0 10 9 42 19 71
11 29 22 71 26 92 4 22 18 61 31 88 13 26 24 55 24 64 0 9 12 50 26 92 28 82
70 135 85 110 15 -23 7 -100 -19 -173 -13 -38 -24 -79 -24 -90 0 -36 -18 -118
-29 -132 -6 -7 -12 -32 -13 -55 -1 -24 -9 -58 -19 -77 -9 -19 -17 -42 -17 -51
0 -33 -77 -233 -93 -242 -12 -6 -17 -22 -17 -53 0 -50 -36 -135 -58 -135 -24
0 -7 -24 24 -33 54 -16 97 -10 122 18 18 21 22 38 22 91 0 75 15 111 62 148
32 25 32 26 10 32 -27 8 -37 40 -23 77 11 28 15 31 64 41 27 6 39 36 13 36 -7
0 -19 7 -27 16 -19 23 0 85 75 239 73 149 108 236 126 315 7 30 23 78 36 105
12 28 26 64 30 80 4 17 25 61 46 98 22 38 38 71 35 73 -2 2 -24 -14 -49 -36z
m-368 -189 c0 -14 -14 -53 -30 -86 -16 -33 -30 -71 -30 -83 0 -13 -6 -36 -13
-50 -38 -76 -56 -122 -67 -172 -7 -30 -21 -70 -31 -88 -10 -18 -19 -44 -19
-56 0 -13 -7 -29 -15 -36 -8 -7 -15 -28 -15 -46 0 -38 -44 -154 -62 -165 -18
-11 -38 9 -38 37 0 46 33 145 52 155 10 5 18 21 18 34 0 13 4 26 9 29 4 3 11
29 15 58 19 149 23 165 49 203 15 22 27 49 27 60 0 11 9 31 20 45 11 14 20 35
20 47 0 33 45 129 66 141 26 15 44 4 44 -27z m214 -156 c18 -18 9 -49 -49
-168 -44 -90 -66 -115 -84 -93 -13 16 4 96 40 189 33 82 61 104 93 72z m-513
-715 c-9 -29 -17 -40 -32 -40 -25 0 -34 22 -20 48 35 66 73 61 52 -8z"/>
<path d="M1973 2533 c-21 -42 -54 -100 -75 -127 -21 -28 -38 -58 -38 -67 0
-26 -60 -132 -89 -157 -20 -18 -34 -22 -66 -18 -46 5 -62 -4 -94 -57 -30 -50
-22 -69 9 -20 17 25 34 39 51 41 24 3 59 -19 59 -37 0 -14 -92 -116 -117 -129
-13 -7 -32 -10 -42 -7 -24 7 -33 -6 -66 -97 -15 -43 -38 -92 -51 -110 -13 -18
-24 -46 -24 -63 0 -19 -8 -39 -20 -50 -14 -12 -17 -25 -13 -46 3 -18 -2 -44
-17 -75 -19 -38 -20 -48 -9 -55 17 -11 21 -11 35 -1 11 7 64 112 64 127 0 4
11 23 25 41 18 24 23 40 19 61 -7 36 34 129 71 163 53 48 157 191 191 261 21
43 52 86 80 112 30 28 41 44 34 51 -5 5 -10 21 -10 34 0 24 67 159 113 226 24
34 36 76 22 76 -2 0 -21 -35 -42 -77z"/>
<path d="M9457 2403 c-4 -3 -7 -52 -7 -109 0 -117 6 -124 82 -97 25 9 72 15
111 14 38 -1 67 3 67 9 0 14 -35 30 -67 30 -31 0 -66 32 -68 62 -2 30 -64 98
-89 98 -12 0 -26 -3 -29 -7z"/>
<path d="M0 2249 c0 -5 5 -7 10 -4 5 3 10 8 10 11 0 2 -4 4 -10 4 -5 0 -10 -5
-10 -11z"/>
<path d="M0 2092 c0 -34 7 -67 21 -93 11 -23 22 -39 24 -37 2 2 -7 44 -20 93
l-24 90 -1 -53z"/>
<path d="M48 1508 c-5 -28 6 -58 22 -58 13 0 12 19 -4 55 l-13 30 -5 -27z"/>
<path d="M190 934 c0 -8 5 -12 10 -9 6 3 10 10 10 16 0 5 -4 9 -10 9 -5 0 -10
-7 -10 -16z"/>
</g>
</svg>
